<?xml version="1.0" encoding="utf-8" standalone="no"?>
<!DOCTYPE svg PUBLIC "-//W3C//DTD SVG 1.1//EN"
  "http://www.w3.org/Graphics/SVG/1.1/DTD/svg11.dtd">
<!-- Created with matplotlib (https://matplotlib.org/) -->
<svg height="216pt" version="1.1" viewBox="0 0 1080 216" width="1080pt" xmlns="http://www.w3.org/2000/svg" xmlns:xlink="http://www.w3.org/1999/xlink">
 <defs>
  <style type="text/css">
*{stroke-linecap:butt;stroke-linejoin:round;}
  </style>
 </defs>
 <g id="figure_1">
  <g id="patch_1">
   <path d="M 0 216 
L 1080 216 
L 1080 0 
L 0 0 
z
" style="fill:#ffffff;"/>
  </g>
  <g id="axes_1">
   <g id="patch_2">
    <path d="M 35.55 165.2 
L 256.190625 165.2 
L 256.190625 31.4 
L 35.55 31.4 
z
" style="fill:#ffffff;"/>
   </g>
   <g id="patch_3">
    <path clip-path="url(#p559a80d427)" d="M 79.702653 165.2 
L 79.702653 164.256085 
L 80.886499 164.256085 
L 80.886499 163.312169 
L 82.070345 163.312169 
L 82.070345 163.312169 
L 83.254192 163.312169 
L 83.254192 157.648677 
L 84.438038 157.648677 
L 84.438038 160.480423 
L 85.621884 160.480423 
L 85.621884 145.377778 
L 86.805731 145.377778 
L 86.805731 140.658201 
L 87.989577 140.658201 
L 87.989577 118.004233 
L 89.173423 118.004233 
L 89.173423 100.069841 
L 90.35727 100.069841 
L 90.35727 78.359788 
L 91.541116 78.359788 
L 91.541116 65.144974 
L 92.724962 65.144974 
L 92.724962 63.257143 
L 93.908808 63.257143 
L 93.908808 37.771429 
L 95.092655 37.771429 
L 95.092655 62.313228 
L 96.276501 62.313228 
L 96.276501 75.528042 
L 97.460347 75.528042 
L 97.460347 105.733333 
L 98.644194 105.733333 
L 98.644194 122.72381 
L 99.82804 122.72381 
L 99.82804 133.106878 
L 101.011886 133.106878 
L 101.011886 153.873016 
L 102.195733 153.873016 
L 102.195733 156.704762 
L 103.379579 156.704762 
L 103.379579 163.312169 
L 104.563425 163.312169 
L 104.563425 161.424339 
L 105.747272 161.424339 
L 105.747272 165.2 
L 106.931118 165.2 
L 106.931118 165.2 
L 108.114964 165.2 
L 108.114964 163.312169 
L 109.29881 163.312169 
L 109.29881 165.2 
" style="fill:none;stroke:#1f77b4;stroke-linejoin:miter;stroke-width:2;"/>
   </g>
   <g id="patch_4">
    <path clip-path="url(#p559a80d427)" d="M 94.156384 165.2 
L 94.156384 164.420191 
L 99.888302 164.420191 
L 99.888302 164.420191 
L 105.62022 164.420191 
L 105.62022 163.640381 
L 111.352139 163.640381 
L 111.352139 163.835334 
L 117.084057 163.835334 
L 117.084057 162.275715 
L 122.815975 162.275715 
L 122.815975 159.741335 
L 128.547893 159.741335 
L 128.547893 157.59686 
L 134.279811 157.59686 
L 134.279811 153.502861 
L 140.011729 153.502861 
L 140.011729 152.138195 
L 145.743647 152.138195 
L 145.743647 146.289625 
L 151.475565 146.289625 
L 151.475565 146.67953 
L 157.207483 146.67953 
L 157.207483 147.069435 
L 162.939401 147.069435 
L 162.939401 145.509816 
L 168.671319 145.509816 
L 168.671319 142.780484 
L 174.403237 142.780484 
L 174.403237 150.578576 
L 180.135155 150.578576 
L 180.135155 154.28267 
L 185.867073 154.28267 
L 185.867073 154.867527 
L 191.598991 154.867527 
L 191.598991 159.156478 
L 197.330909 159.156478 
L 197.330909 161.106001 
L 203.062828 161.106001 
L 203.062828 163.445429 
L 208.794746 163.445429 
L 208.794746 163.055525 
L 214.526664 163.055525 
L 214.526664 164.030286 
L 220.258582 164.030286 
L 220.258582 164.615143 
L 225.9905 164.615143 
L 225.9905 165.2 
L 231.722418 165.2 
L 231.722418 164.810095 
L 237.454336 164.810095 
L 237.454336 165.2 
" style="fill:none;stroke:#d62728;stroke-linejoin:miter;stroke-width:2;"/>
   </g>
   <g id="matplotlib.axis_1">
    <g id="xtick_1">
     <g id="line2d_1">
      <path clip-path="url(#p559a80d427)" d="M 35.55 165.2 
L 35.55 31.4 
" style="fill:none;stroke:#d9d9d9;stroke-linecap:square;stroke-width:0.5;"/>
     </g>
     <g id="line2d_2">
      <defs>
       <path d="M 0 0 
L 0 3.5 
" id="mc65176fbb8" style="stroke:#000000;stroke-width:0.8;"/>
      </defs>
      <g>
       <use style="stroke:#000000;stroke-width:0.8;" x="35.55" xlink:href="#mc65176fbb8" y="165.2"/>
      </g>
     </g>
     <g id="text_1">
      <!-- −0.5 -->
      <defs>
       <path d="M 10.59375 35.5 
L 73.1875 35.5 
L 73.1875 27.203125 
L 10.59375 27.203125 
z
" id="DejaVuSans-8722"/>
       <path d="M 31.78125 66.40625 
Q 24.171875 66.40625 20.328125 58.90625 
Q 16.5 51.421875 16.5 36.375 
Q 16.5 21.390625 20.328125 13.890625 
Q 24.171875 6.390625 31.78125 6.390625 
Q 39.453125 6.390625 43.28125 13.890625 
Q 47.125 21.390625 47.125 36.375 
Q 47.125 51.421875 43.28125 58.90625 
Q 39.453125 66.40625 31.78125 66.40625 
z
M 31.78125 74.21875 
Q 44.046875 74.21875 50.515625 64.515625 
Q 56.984375 54.828125 56.984375 36.375 
Q 56.984375 17.96875 50.515625 8.265625 
Q 44.046875 -1.421875 31.78125 -1.421875 
Q 19.53125 -1.421875 13.0625 8.265625 
Q 6.59375 17.96875 6.59375 36.375 
Q 6.59375 54.828125 13.0625 64.515625 
Q 19.53125 74.21875 31.78125 74.21875 
z
" id="DejaVuSans-48"/>
       <path d="M 10.6875 12.40625 
L 21 12.40625 
L 21 0 
L 10.6875 0 
z
" id="DejaVuSans-46"/>
       <path d="M 10.796875 72.90625 
L 49.515625 72.90625 
L 49.515625 64.59375 
L 19.828125 64.59375 
L 19.828125 46.734375 
Q 21.96875 47.46875 24.109375 47.828125 
Q 26.265625 48.1875 28.421875 48.1875 
Q 40.625 48.1875 47.75 41.5 
Q 54.890625 34.8125 54.890625 23.390625 
Q 54.890625 11.625 47.5625 5.09375 
Q 40.234375 -1.421875 26.90625 -1.421875 
Q 22.3125 -1.421875 17.546875 -0.640625 
Q 12.796875 0.140625 7.71875 1.703125 
L 7.71875 11.625 
Q 12.109375 9.234375 16.796875 8.0625 
Q 21.484375 6.890625 26.703125 6.890625 
Q 35.15625 6.890625 40.078125 11.328125 
Q 45.015625 15.765625 45.015625 23.390625 
Q 45.015625 31 40.078125 35.4375 
Q 35.15625 39.890625 26.703125 39.890625 
Q 22.75 39.890625 18.8125 39.015625 
Q 14.890625 38.140625 10.796875 36.28125 
z
" id="DejaVuSans-53"/>
      </defs>
      <g transform="translate(18.552031 182.837813)scale(0.14 -0.14)">
       <use xlink:href="#DejaVuSans-8722"/>
       <use x="83.789062" xlink:href="#DejaVuSans-48"/>
       <use x="147.412109" xlink:href="#DejaVuSans-46"/>
       <use x="179.199219" xlink:href="#DejaVuSans-53"/>
      </g>
     </g>
    </g>
    <g id="xtick_2">
     <g id="line2d_3">
      <path clip-path="url(#p559a80d427)" d="M 90.710156 165.2 
L 90.710156 31.4 
" style="fill:none;stroke:#d9d9d9;stroke-linecap:square;stroke-width:0.5;"/>
     </g>
     <g id="line2d_4">
      <g>
       <use style="stroke:#000000;stroke-width:0.8;" x="90.710156" xlink:href="#mc65176fbb8" y="165.2"/>
      </g>
     </g>
     <g id="text_2">
      <!-- 0.0 -->
      <g transform="translate(79.577969 182.837813)scale(0.14 -0.14)">
       <use xlink:href="#DejaVuSans-48"/>
       <use x="63.623047" xlink:href="#DejaVuSans-46"/>
       <use x="95.410156" xlink:href="#DejaVuSans-48"/>
      </g>
     </g>
    </g>
    <g id="xtick_3">
     <g id="line2d_5">
      <path clip-path="url(#p559a80d427)" d="M 145.870313 165.2 
L 145.870313 31.4 
" style="fill:none;stroke:#d9d9d9;stroke-linecap:square;stroke-width:0.5;"/>
     </g>
     <g id="line2d_6">
      <g>
       <use style="stroke:#000000;stroke-width:0.8;" x="145.870313" xlink:href="#mc65176fbb8" y="165.2"/>
      </g>
     </g>
     <g id="text_3">
      <!-- 0.5 -->
      <g transform="translate(134.738125 182.837813)scale(0.14 -0.14)">
       <use xlink:href="#DejaVuSans-48"/>
       <use x="63.623047" xlink:href="#DejaVuSans-46"/>
       <use x="95.410156" xlink:href="#DejaVuSans-53"/>
      </g>
     </g>
    </g>
    <g id="xtick_4">
     <g id="line2d_7">
      <path clip-path="url(#p559a80d427)" d="M 201.030469 165.2 
L 201.030469 31.4 
" style="fill:none;stroke:#d9d9d9;stroke-linecap:square;stroke-width:0.5;"/>
     </g>
     <g id="line2d_8">
      <g>
       <use style="stroke:#000000;stroke-width:0.8;" x="201.030469" xlink:href="#mc65176fbb8" y="165.2"/>
      </g>
     </g>
     <g id="text_4">
      <!-- 1.0 -->
      <defs>
       <path d="M 12.40625 8.296875 
L 28.515625 8.296875 
L 28.515625 63.921875 
L 10.984375 60.40625 
L 10.984375 69.390625 
L 28.421875 72.90625 
L 38.28125 72.90625 
L 38.28125 8.296875 
L 54.390625 8.296875 
L 54.390625 0 
L 12.40625 0 
z
" id="DejaVuSans-49"/>
      </defs>
      <g transform="translate(189.898281 182.837813)scale(0.14 -0.14)">
       <use xlink:href="#DejaVuSans-49"/>
       <use x="63.623047" xlink:href="#DejaVuSans-46"/>
       <use x="95.410156" xlink:href="#DejaVuSans-48"/>
      </g>
     </g>
    </g>
    <g id="xtick_5">
     <g id="line2d_9">
      <path clip-path="url(#p559a80d427)" d="M 256.190625 165.2 
L 256.190625 31.4 
" style="fill:none;stroke:#d9d9d9;stroke-linecap:square;stroke-width:0.5;"/>
     </g>
     <g id="line2d_10">
      <g>
       <use style="stroke:#000000;stroke-width:0.8;" x="256.190625" xlink:href="#mc65176fbb8" y="165.2"/>
      </g>
     </g>
     <g id="text_5">
      <!-- 1.5 -->
      <g transform="translate(245.058438 182.837813)scale(0.14 -0.14)">
       <use xlink:href="#DejaVuSans-49"/>
       <use x="63.623047" xlink:href="#DejaVuSans-46"/>
       <use x="95.410156" xlink:href="#DejaVuSans-53"/>
      </g>
     </g>
    </g>
    <g id="text_6">
     <!-- Error (cm) -->
     <defs>
      <path d="M 9.8125 72.90625 
L 55.90625 72.90625 
L 55.90625 64.59375 
L 19.671875 64.59375 
L 19.671875 43.015625 
L 54.390625 43.015625 
L 54.390625 34.71875 
L 19.671875 34.71875 
L 19.671875 8.296875 
L 56.78125 8.296875 
L 56.78125 0 
L 9.8125 0 
z
" id="DejaVuSans-69"/>
      <path d="M 41.109375 46.296875 
Q 39.59375 47.171875 37.8125 47.578125 
Q 36.03125 48 33.890625 48 
Q 26.265625 48 22.1875 43.046875 
Q 18.109375 38.09375 18.109375 28.8125 
L 18.109375 0 
L 9.078125 0 
L 9.078125 54.6875 
L 18.109375 54.6875 
L 18.109375 46.1875 
Q 20.953125 51.171875 25.484375 53.578125 
Q 30.03125 56 36.53125 56 
Q 37.453125 56 38.578125 55.875 
Q 39.703125 55.765625 41.0625 55.515625 
z
" id="DejaVuSans-114"/>
      <path d="M 30.609375 48.390625 
Q 23.390625 48.390625 19.1875 42.75 
Q 14.984375 37.109375 14.984375 27.296875 
Q 14.984375 17.484375 19.15625 11.84375 
Q 23.34375 6.203125 30.609375 6.203125 
Q 37.796875 6.203125 41.984375 11.859375 
Q 46.1875 17.53125 46.1875 27.296875 
Q 46.1875 37.015625 41.984375 42.703125 
Q 37.796875 48.390625 30.609375 48.390625 
z
M 30.609375 56 
Q 42.328125 56 49.015625 48.375 
Q 55.71875 40.765625 55.71875 27.296875 
Q 55.71875 13.875 49.015625 6.21875 
Q 42.328125 -1.421875 30.609375 -1.421875 
Q 18.84375 -1.421875 12.171875 6.21875 
Q 5.515625 13.875 5.515625 27.296875 
Q 5.515625 40.765625 12.171875 48.375 
Q 18.84375 56 30.609375 56 
z
" id="DejaVuSans-111"/>
      <path id="DejaVuSans-32"/>
      <path d="M 31 75.875 
Q 24.46875 64.65625 21.28125 53.65625 
Q 18.109375 42.671875 18.109375 31.390625 
Q 18.109375 20.125 21.3125 9.0625 
Q 24.515625 -2 31 -13.1875 
L 23.1875 -13.1875 
Q 15.875 -1.703125 12.234375 9.375 
Q 8.59375 20.453125 8.59375 31.390625 
Q 8.59375 42.28125 12.203125 53.3125 
Q 15.828125 64.359375 23.1875 75.875 
z
" id="DejaVuSans-40"/>
      <path d="M 48.78125 52.59375 
L 48.78125 44.1875 
Q 44.96875 46.296875 41.140625 47.34375 
Q 37.3125 48.390625 33.40625 48.390625 
Q 24.65625 48.390625 19.8125 42.84375 
Q 14.984375 37.3125 14.984375 27.296875 
Q 14.984375 17.28125 19.8125 11.734375 
Q 24.65625 6.203125 33.40625 6.203125 
Q 37.3125 6.203125 41.140625 7.25 
Q 44.96875 8.296875 48.78125 10.40625 
L 48.78125 2.09375 
Q 45.015625 0.34375 40.984375 -0.53125 
Q 36.96875 -1.421875 32.421875 -1.421875 
Q 20.0625 -1.421875 12.78125 6.34375 
Q 5.515625 14.109375 5.515625 27.296875 
Q 5.515625 40.671875 12.859375 48.328125 
Q 20.21875 56 33.015625 56 
Q 37.15625 56 41.109375 55.140625 
Q 45.0625 54.296875 48.78125 52.59375 
z
" id="DejaVuSans-99"/>
      <path d="M 52 44.1875 
Q 55.375 50.25 60.0625 53.125 
Q 64.75 56 71.09375 56 
Q 79.640625 56 84.28125 50.015625 
Q 88.921875 44.046875 88.921875 33.015625 
L 88.921875 0 
L 79.890625 0 
L 79.890625 32.71875 
Q 79.890625 40.578125 77.09375 44.375 
Q 74.3125 48.1875 68.609375 48.1875 
Q 61.625 48.1875 57.5625 43.546875 
Q 53.515625 38.921875 53.515625 30.90625 
L 53.515625 0 
L 44.484375 0 
L 44.484375 32.71875 
Q 44.484375 40.625 41.703125 44.40625 
Q 38.921875 48.1875 33.109375 48.1875 
Q 26.21875 48.1875 22.15625 43.53125 
Q 18.109375 38.875 18.109375 30.90625 
L 18.109375 0 
L 9.078125 0 
L 9.078125 54.6875 
L 18.109375 54.6875 
L 18.109375 46.1875 
Q 21.1875 51.21875 25.484375 53.609375 
Q 29.78125 56 35.6875 56 
Q 41.65625 56 45.828125 52.96875 
Q 50 49.953125 52 44.1875 
z
" id="DejaVuSans-109"/>
      <path d="M 8.015625 75.875 
L 15.828125 75.875 
Q 23.140625 64.359375 26.78125 53.3125 
Q 30.421875 42.28125 30.421875 31.390625 
Q 30.421875 20.453125 26.78125 9.375 
Q 23.140625 -1.703125 15.828125 -13.1875 
L 8.015625 -13.1875 
Q 14.5 -2 17.703125 9.0625 
Q 20.90625 20.125 20.90625 31.390625 
Q 20.90625 42.671875 17.703125 53.65625 
Q 14.5 64.65625 8.015625 75.875 
z
" id="DejaVuSans-41"/>
     </defs>
     <g transform="translate(105.397813 201.906875)scale(0.16 -0.16)">
      <use xlink:href="#DejaVuSans-69"/>
      <use x="63.183594" xlink:href="#DejaVuSans-114"/>
      <use x="102.546875" xlink:href="#DejaVuSans-114"/>
      <use x="141.410156" xlink:href="#DejaVuSans-111"/>
      <use x="202.591797" xlink:href="#DejaVuSans-114"/>
      <use x="243.705078" xlink:href="#DejaVuSans-32"/>
      <use x="275.492188" xlink:href="#DejaVuSans-40"/>
      <use x="314.505859" xlink:href="#DejaVuSans-99"/>
      <use x="369.486328" xlink:href="#DejaVuSans-109"/>
      <use x="466.898438" xlink:href="#DejaVuSans-41"/>
     </g>
    </g>
   </g>
   <g id="matplotlib.axis_2">
    <g id="ytick_1">
     <g id="line2d_11">
      <path clip-path="url(#p559a80d427)" d="M 35.55 165.2 
L 256.190625 165.2 
" style="fill:none;stroke:#d9d9d9;stroke-linecap:square;stroke-width:0.5;"/>
     </g>
     <g id="line2d_12">
      <defs>
       <path d="M 0 0 
L -3.5 0 
" id="m1d9dca6110" style="stroke:#000000;stroke-width:0.8;"/>
      </defs>
      <g>
       <use style="stroke:#000000;stroke-width:0.8;" x="35.55" xlink:href="#m1d9dca6110" y="165.2"/>
      </g>
     </g>
     <g id="text_7">
      <!-- 0.0 -->
      <g transform="translate(6.285625 170.518906)scale(0.14 -0.14)">
       <use xlink:href="#DejaVuSans-48"/>
       <use x="63.623047" xlink:href="#DejaVuSans-46"/>
       <use x="95.410156" xlink:href="#DejaVuSans-48"/>
      </g>
     </g>
    </g>
    <g id="ytick_2">
     <g id="line2d_13">
      <path clip-path="url(#p559a80d427)" d="M 35.55 139.877132 
L 256.190625 139.877132 
" style="fill:none;stroke:#d9d9d9;stroke-linecap:square;stroke-width:0.5;"/>
     </g>
     <g id="line2d_14">
      <g>
       <use style="stroke:#000000;stroke-width:0.8;" x="35.55" xlink:href="#m1d9dca6110" y="139.877132"/>
      </g>
     </g>
     <g id="text_8">
      <!-- 2.5 -->
      <defs>
       <path d="M 19.1875 8.296875 
L 53.609375 8.296875 
L 53.609375 0 
L 7.328125 0 
L 7.328125 8.296875 
Q 12.9375 14.109375 22.625 23.890625 
Q 32.328125 33.6875 34.8125 36.53125 
Q 39.546875 41.84375 41.421875 45.53125 
Q 43.3125 49.21875 43.3125 52.78125 
Q 43.3125 58.59375 39.234375 62.25 
Q 35.15625 65.921875 28.609375 65.921875 
Q 23.96875 65.921875 18.8125 64.3125 
Q 13.671875 62.703125 7.8125 59.421875 
L 7.8125 69.390625 
Q 13.765625 71.78125 18.9375 73 
Q 24.125 74.21875 28.421875 74.21875 
Q 39.75 74.21875 46.484375 68.546875 
Q 53.21875 62.890625 53.21875 53.421875 
Q 53.21875 48.921875 51.53125 44.890625 
Q 49.859375 40.875 45.40625 35.40625 
Q 44.1875 33.984375 37.640625 27.21875 
Q 31.109375 20.453125 19.1875 8.296875 
z
" id="DejaVuSans-50"/>
      </defs>
      <g transform="translate(6.285625 145.196038)scale(0.14 -0.14)">
       <use xlink:href="#DejaVuSans-50"/>
       <use x="63.623047" xlink:href="#DejaVuSans-46"/>
       <use x="95.410156" xlink:href="#DejaVuSans-53"/>
      </g>
     </g>
    </g>
    <g id="ytick_3">
     <g id="line2d_15">
      <path clip-path="url(#p559a80d427)" d="M 35.55 114.554264 
L 256.190625 114.554264 
" style="fill:none;stroke:#d9d9d9;stroke-linecap:square;stroke-width:0.5;"/>
     </g>
     <g id="line2d_16">
      <g>
       <use style="stroke:#000000;stroke-width:0.8;" x="35.55" xlink:href="#m1d9dca6110" y="114.554264"/>
      </g>
     </g>
     <g id="text_9">
      <!-- 5.0 -->
      <g transform="translate(6.285625 119.87317)scale(0.14 -0.14)">
       <use xlink:href="#DejaVuSans-53"/>
       <use x="63.623047" xlink:href="#DejaVuSans-46"/>
       <use x="95.410156" xlink:href="#DejaVuSans-48"/>
      </g>
     </g>
    </g>
    <g id="ytick_4">
     <g id="line2d_17">
      <path clip-path="url(#p559a80d427)" d="M 35.55 89.231395 
L 256.190625 89.231395 
" style="fill:none;stroke:#d9d9d9;stroke-linecap:square;stroke-width:0.5;"/>
     </g>
     <g id="line2d_18">
      <g>
       <use style="stroke:#000000;stroke-width:0.8;" x="35.55" xlink:href="#m1d9dca6110" y="89.231395"/>
      </g>
     </g>
     <g id="text_10">
      <!-- 7.5 -->
      <defs>
       <path d="M 8.203125 72.90625 
L 55.078125 72.90625 
L 55.078125 68.703125 
L 28.609375 0 
L 18.3125 0 
L 43.21875 64.59375 
L 8.203125 64.59375 
z
" id="DejaVuSans-55"/>
      </defs>
      <g transform="translate(6.285625 94.550302)scale(0.14 -0.14)">
       <use xlink:href="#DejaVuSans-55"/>
       <use x="63.623047" xlink:href="#DejaVuSans-46"/>
       <use x="95.410156" xlink:href="#DejaVuSans-53"/>
      </g>
     </g>
    </g>
    <g id="ytick_5">
     <g id="line2d_19">
      <path clip-path="url(#p559a80d427)" d="M 35.55 63.908527 
L 256.190625 63.908527 
" style="fill:none;stroke:#d9d9d9;stroke-linecap:square;stroke-width:0.5;"/>
     </g>
     <g id="line2d_20">
      <g>
       <use style="stroke:#000000;stroke-width:0.8;" x="35.55" xlink:href="#m1d9dca6110" y="63.908527"/>
      </g>
     </g>
     <g id="text_11">
      <!-- 10.0 -->
      <g transform="translate(-2.621875 69.227433)scale(0.14 -0.14)">
       <use xlink:href="#DejaVuSans-49"/>
       <use x="63.623047" xlink:href="#DejaVuSans-48"/>
       <use x="127.246094" xlink:href="#DejaVuSans-46"/>
       <use x="159.033203" xlink:href="#DejaVuSans-48"/>
      </g>
     </g>
    </g>
    <g id="ytick_6">
     <g id="line2d_21">
      <path clip-path="url(#p559a80d427)" d="M 35.55 38.585659 
L 256.190625 38.585659 
" style="fill:none;stroke:#d9d9d9;stroke-linecap:square;stroke-width:0.5;"/>
     </g>
     <g id="line2d_22">
      <g>
       <use style="stroke:#000000;stroke-width:0.8;" x="35.55" xlink:href="#m1d9dca6110" y="38.585659"/>
      </g>
     </g>
     <g id="text_12">
      <!-- 12.5 -->
      <g transform="translate(-2.621875 43.904565)scale(0.14 -0.14)">
       <use xlink:href="#DejaVuSans-49"/>
       <use x="63.623047" xlink:href="#DejaVuSans-50"/>
       <use x="127.246094" xlink:href="#DejaVuSans-46"/>
       <use x="159.033203" xlink:href="#DejaVuSans-53"/>
      </g>
     </g>
    </g>
   </g>
   <g id="patch_5">
    <path d="M 35.55 165.2 
L 35.55 31.4 
" style="fill:none;stroke:#000000;stroke-linecap:square;stroke-linejoin:miter;stroke-width:0.8;"/>
   </g>
   <g id="patch_6">
    <path d="M 256.190625 165.2 
L 256.190625 31.4 
" style="fill:none;stroke:#000000;stroke-linecap:square;stroke-linejoin:miter;stroke-width:0.8;"/>
   </g>
   <g id="patch_7">
    <path d="M 35.55 165.2 
L 256.190625 165.2 
" style="fill:none;stroke:#000000;stroke-linecap:square;stroke-linejoin:miter;stroke-width:0.8;"/>
   </g>
   <g id="patch_8">
    <path d="M 35.55 31.4 
L 256.190625 31.4 
" style="fill:none;stroke:#000000;stroke-linecap:square;stroke-linejoin:miter;stroke-width:0.8;"/>
   </g>
   <g id="text_13">
    <!-- $p_x$ (dur: 5.0sec) -->
    <defs>
     <path d="M 49.609375 33.6875 
Q 49.609375 40.875 46.484375 44.671875 
Q 43.359375 48.484375 37.5 48.484375 
Q 33.5 48.484375 29.859375 46.4375 
Q 26.21875 44.390625 23.390625 40.484375 
Q 20.609375 36.625 18.9375 31.15625 
Q 17.28125 25.6875 17.28125 20.3125 
Q 17.28125 13.484375 20.40625 9.796875 
Q 23.53125 6.109375 29.296875 6.109375 
Q 33.546875 6.109375 37.1875 8.109375 
Q 40.828125 10.109375 43.40625 13.921875 
Q 46.1875 17.921875 47.890625 23.34375 
Q 49.609375 28.765625 49.609375 33.6875 
z
M 21.78125 46.390625 
Q 25.390625 51.125 30.296875 53.5625 
Q 35.203125 56 41.21875 56 
Q 49.609375 56 54.25 50.5 
Q 58.890625 45.015625 58.890625 35.109375 
Q 58.890625 27 56 19.65625 
Q 53.125 12.3125 47.703125 6.5 
Q 44.09375 2.640625 39.546875 0.609375 
Q 35.015625 -1.421875 29.984375 -1.421875 
Q 24.171875 -1.421875 20.21875 1 
Q 16.265625 3.421875 14.3125 8.203125 
L 8.6875 -20.796875 
L -0.296875 -20.796875 
L 14.40625 54.6875 
L 23.390625 54.6875 
z
" id="DejaVuSans-Oblique-112"/>
     <path d="M 60.015625 54.6875 
L 34.90625 27.875 
L 50.296875 0 
L 39.984375 0 
L 28.421875 21.6875 
L 8.296875 0 
L -2.59375 0 
L 24.3125 28.8125 
L 10.015625 54.6875 
L 20.3125 54.6875 
L 30.8125 34.90625 
L 49.125 54.6875 
z
" id="DejaVuSans-Oblique-120"/>
     <path d="M 45.40625 46.390625 
L 45.40625 75.984375 
L 54.390625 75.984375 
L 54.390625 0 
L 45.40625 0 
L 45.40625 8.203125 
Q 42.578125 3.328125 38.25 0.953125 
Q 33.9375 -1.421875 27.875 -1.421875 
Q 17.96875 -1.421875 11.734375 6.484375 
Q 5.515625 14.40625 5.515625 27.296875 
Q 5.515625 40.1875 11.734375 48.09375 
Q 17.96875 56 27.875 56 
Q 33.9375 56 38.25 53.625 
Q 42.578125 51.265625 45.40625 46.390625 
z
M 14.796875 27.296875 
Q 14.796875 17.390625 18.875 11.75 
Q 22.953125 6.109375 30.078125 6.109375 
Q 37.203125 6.109375 41.296875 11.75 
Q 45.40625 17.390625 45.40625 27.296875 
Q 45.40625 37.203125 41.296875 42.84375 
Q 37.203125 48.484375 30.078125 48.484375 
Q 22.953125 48.484375 18.875 42.84375 
Q 14.796875 37.203125 14.796875 27.296875 
z
" id="DejaVuSans-100"/>
     <path d="M 8.5 21.578125 
L 8.5 54.6875 
L 17.484375 54.6875 
L 17.484375 21.921875 
Q 17.484375 14.15625 20.5 10.265625 
Q 23.53125 6.390625 29.59375 6.390625 
Q 36.859375 6.390625 41.078125 11.03125 
Q 45.3125 15.671875 45.3125 23.6875 
L 45.3125 54.6875 
L 54.296875 54.6875 
L 54.296875 0 
L 45.3125 0 
L 45.3125 8.40625 
Q 42.046875 3.421875 37.71875 1 
Q 33.40625 -1.421875 27.6875 -1.421875 
Q 18.265625 -1.421875 13.375 4.4375 
Q 8.5 10.296875 8.5 21.578125 
z
M 31.109375 56 
z
" id="DejaVuSans-117"/>
     <path d="M 11.71875 12.40625 
L 22.015625 12.40625 
L 22.015625 0 
L 11.71875 0 
z
M 11.71875 51.703125 
L 22.015625 51.703125 
L 22.015625 39.3125 
L 11.71875 39.3125 
z
" id="DejaVuSans-58"/>
     <path d="M 44.28125 53.078125 
L 44.28125 44.578125 
Q 40.484375 46.53125 36.375 47.5 
Q 32.28125 48.484375 27.875 48.484375 
Q 21.1875 48.484375 17.84375 46.4375 
Q 14.5 44.390625 14.5 40.28125 
Q 14.5 37.15625 16.890625 35.375 
Q 19.28125 33.59375 26.515625 31.984375 
L 29.59375 31.296875 
Q 39.15625 29.25 43.1875 25.515625 
Q 47.21875 21.78125 47.21875 15.09375 
Q 47.21875 7.46875 41.1875 3.015625 
Q 35.15625 -1.421875 24.609375 -1.421875 
Q 20.21875 -1.421875 15.453125 -0.5625 
Q 10.6875 0.296875 5.421875 2 
L 5.421875 11.28125 
Q 10.40625 8.6875 15.234375 7.390625 
Q 20.0625 6.109375 24.8125 6.109375 
Q 31.15625 6.109375 34.5625 8.28125 
Q 37.984375 10.453125 37.984375 14.40625 
Q 37.984375 18.0625 35.515625 20.015625 
Q 33.0625 21.96875 24.703125 23.78125 
L 21.578125 24.515625 
Q 13.234375 26.265625 9.515625 29.90625 
Q 5.8125 33.546875 5.8125 39.890625 
Q 5.8125 47.609375 11.28125 51.796875 
Q 16.75 56 26.8125 56 
Q 31.78125 56 36.171875 55.265625 
Q 40.578125 54.546875 44.28125 53.078125 
z
" id="DejaVuSans-115"/>
     <path d="M 56.203125 29.59375 
L 56.203125 25.203125 
L 14.890625 25.203125 
Q 15.484375 15.921875 20.484375 11.0625 
Q 25.484375 6.203125 34.421875 6.203125 
Q 39.59375 6.203125 44.453125 7.46875 
Q 49.3125 8.734375 54.109375 11.28125 
L 54.109375 2.78125 
Q 49.265625 0.734375 44.1875 -0.34375 
Q 39.109375 -1.421875 33.890625 -1.421875 
Q 20.796875 -1.421875 13.15625 6.1875 
Q 5.515625 13.8125 5.515625 26.8125 
Q 5.515625 40.234375 12.765625 48.109375 
Q 20.015625 56 32.328125 56 
Q 43.359375 56 49.78125 48.890625 
Q 56.203125 41.796875 56.203125 29.59375 
z
M 47.21875 32.234375 
Q 47.125 39.59375 43.09375 43.984375 
Q 39.0625 48.390625 32.421875 48.390625 
Q 24.90625 48.390625 20.390625 44.140625 
Q 15.875 39.890625 15.1875 32.171875 
z
" id="DejaVuSans-101"/>
    </defs>
    <g transform="translate(83.550313 25.4)scale(0.16 -0.16)">
     <use transform="translate(0 0.015625)" xlink:href="#DejaVuSans-Oblique-112"/>
     <use transform="translate(63.476562 -16.390625)scale(0.7)" xlink:href="#DejaVuSans-Oblique-120"/>
     <use transform="translate(107.636719 0.015625)" xlink:href="#DejaVuSans-32"/>
     <use transform="translate(139.423828 0.015625)" xlink:href="#DejaVuSans-40"/>
     <use transform="translate(178.4375 0.015625)" xlink:href="#DejaVuSans-100"/>
     <use transform="translate(241.914062 0.015625)" xlink:href="#DejaVuSans-117"/>
     <use transform="translate(305.292969 0.015625)" xlink:href="#DejaVuSans-114"/>
     <use transform="translate(346.40625 0.015625)" xlink:href="#DejaVuSans-58"/>
     <use transform="translate(380.097656 0.015625)" xlink:href="#DejaVuSans-32"/>
     <use transform="translate(411.884766 0.015625)" xlink:href="#DejaVuSans-53"/>
     <use transform="translate(475.507812 0.015625)" xlink:href="#DejaVuSans-46"/>
     <use transform="translate(507.294922 0.015625)" xlink:href="#DejaVuSans-48"/>
     <use transform="translate(570.917969 0.015625)" xlink:href="#DejaVuSans-115"/>
     <use transform="translate(623.017578 0.015625)" xlink:href="#DejaVuSans-101"/>
     <use transform="translate(684.541016 0.015625)" xlink:href="#DejaVuSans-99"/>
     <use transform="translate(739.521484 0.015625)" xlink:href="#DejaVuSans-41"/>
    </g>
   </g>
  </g>
  <g id="axes_2">
   <g id="patch_9">
    <path d="M 302.865625 165.2 
L 523.50625 165.2 
L 523.50625 31.4 
L 302.865625 31.4 
z
" style="fill:#ffffff;"/>
   </g>
   <g id="patch_10">
    <path clip-path="url(#p72b6d5785d)" d="M 349.010723 165.2 
L 349.010723 161.524176 
L 350.011598 161.524176 
L 350.011598 161.524176 
L 351.012474 161.524176 
L 351.012474 161.524176 
L 352.01335 161.524176 
L 352.01335 151.721978 
L 353.014226 151.721978 
L 353.014226 151.721978 
L 354.015102 151.721978 
L 354.015102 132.117582 
L 355.015978 132.117582 
L 355.015978 113.738462 
L 356.016854 113.738462 
L 356.016854 114.963736 
L 357.01773 114.963736 
L 357.01773 83.106593 
L 358.018606 83.106593 
L 358.018606 62.276923 
L 359.019482 62.276923 
L 359.019482 37.771429 
L 360.020358 37.771429 
L 360.020358 46.348352 
L 361.021234 46.348352 
L 361.021234 51.249451 
L 362.02211 51.249451 
L 362.02211 43.897802 
L 363.022986 43.897802 
L 363.022986 48.798901 
L 364.023862 48.798901 
L 364.023862 94.134066 
L 365.024738 94.134066 
L 365.024738 96.584615 
L 366.025614 96.584615 
L 366.025614 110.062637 
L 367.02649 110.062637 
L 367.02649 133.342857 
L 368.027366 133.342857 
L 368.027366 149.271429 
L 369.028242 149.271429 
L 369.028242 152.947253 
L 370.029118 152.947253 
L 370.029118 161.524176 
L 371.029994 161.524176 
L 371.029994 160.298901 
L 372.03087 160.298901 
L 372.03087 160.298901 
L 373.031746 160.298901 
L 373.031746 163.974725 
L 374.032622 163.974725 
L 374.032622 165.2 
" style="fill:none;stroke:#1f77b4;stroke-linejoin:miter;stroke-width:2;"/>
   </g>
   <g id="patch_11">
    <path clip-path="url(#p72b6d5785d)" d="M 341.591636 165.2 
L 341.591636 165.01342 
L 348.164422 165.01342 
L 348.164422 165.2 
L 354.737208 165.2 
L 354.737208 165.2 
L 361.309994 165.2 
L 361.309994 165.2 
L 367.88278 165.2 
L 367.88278 165.01342 
L 374.455566 165.01342 
L 374.455566 163.893943 
L 381.028352 163.893943 
L 381.028352 162.028146 
L 387.601138 162.028146 
L 387.601138 160.722089 
L 394.173924 160.722089 
L 394.173924 155.497859 
L 400.74671 155.497859 
L 400.74671 156.617337 
L 407.319496 156.617337 
L 407.319496 147.661514 
L 413.892282 147.661514 
L 413.892282 145.235979 
L 420.465068 145.235979 
L 420.465068 137.399634 
L 427.037854 137.399634 
L 427.037854 144.862819 
L 433.61064 144.862819 
L 433.61064 143.743341 
L 440.183426 143.743341 
L 440.183426 148.034673 
L 446.756212 148.034673 
L 446.756212 154.005222 
L 453.328998 154.005222 
L 453.328998 154.378381 
L 459.901784 154.378381 
L 459.901784 159.78919 
L 466.47457 159.78919 
L 466.47457 161.468407 
L 473.047356 161.468407 
L 473.047356 163.707363 
L 479.620142 163.707363 
L 479.620142 164.080522 
L 486.192928 164.080522 
L 486.192928 164.826841 
L 492.765714 164.826841 
L 492.765714 165.01342 
L 499.3385 165.01342 
L 499.3385 164.826841 
L 505.911286 164.826841 
L 505.911286 165.2 
" style="fill:none;stroke:#d62728;stroke-linejoin:miter;stroke-width:2;"/>
   </g>
   <g id="matplotlib.axis_3">
    <g id="xtick_6">
     <g id="line2d_23">
      <path clip-path="url(#p72b6d5785d)" d="M 302.865625 165.2 
L 302.865625 31.4 
" style="fill:none;stroke:#d9d9d9;stroke-linecap:square;stroke-width:0.5;"/>
     </g>
     <g id="line2d_24">
      <g>
       <use style="stroke:#000000;stroke-width:0.8;" x="302.865625" xlink:href="#mc65176fbb8" y="165.2"/>
      </g>
     </g>
     <g id="text_14">
      <!-- −0.5 -->
      <g transform="translate(285.867656 182.837813)scale(0.14 -0.14)">
       <use xlink:href="#DejaVuSans-8722"/>
       <use x="83.789062" xlink:href="#DejaVuSans-48"/>
       <use x="147.412109" xlink:href="#DejaVuSans-46"/>
       <use x="179.199219" xlink:href="#DejaVuSans-53"/>
      </g>
     </g>
    </g>
    <g id="xtick_7">
     <g id="line2d_25">
      <path clip-path="url(#p72b6d5785d)" d="M 358.025781 165.2 
L 358.025781 31.4 
" style="fill:none;stroke:#d9d9d9;stroke-linecap:square;stroke-width:0.5;"/>
     </g>
     <g id="line2d_26">
      <g>
       <use style="stroke:#000000;stroke-width:0.8;" x="358.025781" xlink:href="#mc65176fbb8" y="165.2"/>
      </g>
     </g>
     <g id="text_15">
      <!-- 0.0 -->
      <g transform="translate(346.893594 182.837813)scale(0.14 -0.14)">
       <use xlink:href="#DejaVuSans-48"/>
       <use x="63.623047" xlink:href="#DejaVuSans-46"/>
       <use x="95.410156" xlink:href="#DejaVuSans-48"/>
      </g>
     </g>
    </g>
    <g id="xtick_8">
     <g id="line2d_27">
      <path clip-path="url(#p72b6d5785d)" d="M 413.185937 165.2 
L 413.185937 31.4 
" style="fill:none;stroke:#d9d9d9;stroke-linecap:square;stroke-width:0.5;"/>
     </g>
     <g id="line2d_28">
      <g>
       <use style="stroke:#000000;stroke-width:0.8;" x="413.185937" xlink:href="#mc65176fbb8" y="165.2"/>
      </g>
     </g>
     <g id="text_16">
      <!-- 0.5 -->
      <g transform="translate(402.05375 182.837813)scale(0.14 -0.14)">
       <use xlink:href="#DejaVuSans-48"/>
       <use x="63.623047" xlink:href="#DejaVuSans-46"/>
       <use x="95.410156" xlink:href="#DejaVuSans-53"/>
      </g>
     </g>
    </g>
    <g id="xtick_9">
     <g id="line2d_29">
      <path clip-path="url(#p72b6d5785d)" d="M 468.346094 165.2 
L 468.346094 31.4 
" style="fill:none;stroke:#d9d9d9;stroke-linecap:square;stroke-width:0.5;"/>
     </g>
     <g id="line2d_30">
      <g>
       <use style="stroke:#000000;stroke-width:0.8;" x="468.346094" xlink:href="#mc65176fbb8" y="165.2"/>
      </g>
     </g>
     <g id="text_17">
      <!-- 1.0 -->
      <g transform="translate(457.213906 182.837813)scale(0.14 -0.14)">
       <use xlink:href="#DejaVuSans-49"/>
       <use x="63.623047" xlink:href="#DejaVuSans-46"/>
       <use x="95.410156" xlink:href="#DejaVuSans-48"/>
      </g>
     </g>
    </g>
    <g id="xtick_10">
     <g id="line2d_31">
      <path clip-path="url(#p72b6d5785d)" d="M 523.50625 165.2 
L 523.50625 31.4 
" style="fill:none;stroke:#d9d9d9;stroke-linecap:square;stroke-width:0.5;"/>
     </g>
     <g id="line2d_32">
      <g>
       <use style="stroke:#000000;stroke-width:0.8;" x="523.50625" xlink:href="#mc65176fbb8" y="165.2"/>
      </g>
     </g>
     <g id="text_18">
      <!-- 1.5 -->
      <g transform="translate(512.374063 182.837813)scale(0.14 -0.14)">
       <use xlink:href="#DejaVuSans-49"/>
       <use x="63.623047" xlink:href="#DejaVuSans-46"/>
       <use x="95.410156" xlink:href="#DejaVuSans-53"/>
      </g>
     </g>
    </g>
    <g id="text_19">
     <!-- Error (cm) -->
     <g transform="translate(372.713437 201.906875)scale(0.16 -0.16)">
      <use xlink:href="#DejaVuSans-69"/>
      <use x="63.183594" xlink:href="#DejaVuSans-114"/>
      <use x="102.546875" xlink:href="#DejaVuSans-114"/>
      <use x="141.410156" xlink:href="#DejaVuSans-111"/>
      <use x="202.591797" xlink:href="#DejaVuSans-114"/>
      <use x="243.705078" xlink:href="#DejaVuSans-32"/>
      <use x="275.492188" xlink:href="#DejaVuSans-40"/>
      <use x="314.505859" xlink:href="#DejaVuSans-99"/>
      <use x="369.486328" xlink:href="#DejaVuSans-109"/>
      <use x="466.898438" xlink:href="#DejaVuSans-41"/>
     </g>
    </g>
   </g>
   <g id="matplotlib.axis_4">
    <g id="ytick_7">
     <g id="line2d_33">
      <path clip-path="url(#p72b6d5785d)" d="M 302.865625 165.2 
L 523.50625 165.2 
" style="fill:none;stroke:#d9d9d9;stroke-linecap:square;stroke-width:0.5;"/>
     </g>
     <g id="line2d_34">
      <g>
       <use style="stroke:#000000;stroke-width:0.8;" x="302.865625" xlink:href="#m1d9dca6110" y="165.2"/>
      </g>
     </g>
     <g id="text_20">
      <!-- 0.0 -->
      <g transform="translate(273.60125 170.518906)scale(0.14 -0.14)">
       <use xlink:href="#DejaVuSans-48"/>
       <use x="63.623047" xlink:href="#DejaVuSans-46"/>
       <use x="95.410156" xlink:href="#DejaVuSans-48"/>
      </g>
     </g>
    </g>
    <g id="ytick_8">
     <g id="line2d_35">
      <path clip-path="url(#p72b6d5785d)" d="M 302.865625 137.409378 
L 523.50625 137.409378 
" style="fill:none;stroke:#d9d9d9;stroke-linecap:square;stroke-width:0.5;"/>
     </g>
     <g id="line2d_36">
      <g>
       <use style="stroke:#000000;stroke-width:0.8;" x="302.865625" xlink:href="#m1d9dca6110" y="137.409378"/>
      </g>
     </g>
     <g id="text_21">
      <!-- 2.5 -->
      <g transform="translate(273.60125 142.728284)scale(0.14 -0.14)">
       <use xlink:href="#DejaVuSans-50"/>
       <use x="63.623047" xlink:href="#DejaVuSans-46"/>
       <use x="95.410156" xlink:href="#DejaVuSans-53"/>
      </g>
     </g>
    </g>
    <g id="ytick_9">
     <g id="line2d_37">
      <path clip-path="url(#p72b6d5785d)" d="M 302.865625 109.618756 
L 523.50625 109.618756 
" style="fill:none;stroke:#d9d9d9;stroke-linecap:square;stroke-width:0.5;"/>
     </g>
     <g id="line2d_38">
      <g>
       <use style="stroke:#000000;stroke-width:0.8;" x="302.865625" xlink:href="#m1d9dca6110" y="109.618756"/>
      </g>
     </g>
     <g id="text_22">
      <!-- 5.0 -->
      <g transform="translate(273.60125 114.937662)scale(0.14 -0.14)">
       <use xlink:href="#DejaVuSans-53"/>
       <use x="63.623047" xlink:href="#DejaVuSans-46"/>
       <use x="95.410156" xlink:href="#DejaVuSans-48"/>
      </g>
     </g>
    </g>
    <g id="ytick_10">
     <g id="line2d_39">
      <path clip-path="url(#p72b6d5785d)" d="M 302.865625 81.828134 
L 523.50625 81.828134 
" style="fill:none;stroke:#d9d9d9;stroke-linecap:square;stroke-width:0.5;"/>
     </g>
     <g id="line2d_40">
      <g>
       <use style="stroke:#000000;stroke-width:0.8;" x="302.865625" xlink:href="#m1d9dca6110" y="81.828134"/>
      </g>
     </g>
     <g id="text_23">
      <!-- 7.5 -->
      <g transform="translate(273.60125 87.14704)scale(0.14 -0.14)">
       <use xlink:href="#DejaVuSans-55"/>
       <use x="63.623047" xlink:href="#DejaVuSans-46"/>
       <use x="95.410156" xlink:href="#DejaVuSans-53"/>
      </g>
     </g>
    </g>
    <g id="ytick_11">
     <g id="line2d_41">
      <path clip-path="url(#p72b6d5785d)" d="M 302.865625 54.037512 
L 523.50625 54.037512 
" style="fill:none;stroke:#d9d9d9;stroke-linecap:square;stroke-width:0.5;"/>
     </g>
     <g id="line2d_42">
      <g>
       <use style="stroke:#000000;stroke-width:0.8;" x="302.865625" xlink:href="#m1d9dca6110" y="54.037512"/>
      </g>
     </g>
     <g id="text_24">
      <!-- 10.0 -->
      <g transform="translate(264.69375 59.356418)scale(0.14 -0.14)">
       <use xlink:href="#DejaVuSans-49"/>
       <use x="63.623047" xlink:href="#DejaVuSans-48"/>
       <use x="127.246094" xlink:href="#DejaVuSans-46"/>
       <use x="159.033203" xlink:href="#DejaVuSans-48"/>
      </g>
     </g>
    </g>
   </g>
   <g id="patch_12">
    <path d="M 302.865625 165.2 
L 302.865625 31.4 
" style="fill:none;stroke:#000000;stroke-linecap:square;stroke-linejoin:miter;stroke-width:0.8;"/>
   </g>
   <g id="patch_13">
    <path d="M 523.50625 165.2 
L 523.50625 31.4 
" style="fill:none;stroke:#000000;stroke-linecap:square;stroke-linejoin:miter;stroke-width:0.8;"/>
   </g>
   <g id="patch_14">
    <path d="M 302.865625 165.2 
L 523.50625 165.2 
" style="fill:none;stroke:#000000;stroke-linecap:square;stroke-linejoin:miter;stroke-width:0.8;"/>
   </g>
   <g id="patch_15">
    <path d="M 302.865625 31.4 
L 523.50625 31.4 
" style="fill:none;stroke:#000000;stroke-linecap:square;stroke-linejoin:miter;stroke-width:0.8;"/>
   </g>
   <g id="text_25">
    <!-- $p_y$ (dur: 5.0sec) -->
    <defs>
     <path d="M 24.8125 -5.078125 
Q 18.5625 -15.578125 14.625 -18.1875 
Q 10.6875 -20.796875 4.59375 -20.796875 
L -2.484375 -20.796875 
L -0.984375 -13.28125 
L 4.203125 -13.28125 
Q 7.953125 -13.28125 10.59375 -11.234375 
Q 13.234375 -9.1875 16.5 -3.21875 
L 19.28125 2 
L 7.171875 54.6875 
L 16.703125 54.6875 
L 25.78125 12.796875 
L 50.875 54.6875 
L 60.296875 54.6875 
z
" id="DejaVuSans-Oblique-121"/>
    </defs>
    <g transform="translate(350.865938 25.4)scale(0.16 -0.16)">
     <use transform="translate(0 0.015625)" xlink:href="#DejaVuSans-Oblique-112"/>
     <use transform="translate(63.476562 -16.390625)scale(0.7)" xlink:href="#DejaVuSans-Oblique-121"/>
     <use transform="translate(107.636719 0.015625)" xlink:href="#DejaVuSans-32"/>
     <use transform="translate(139.423828 0.015625)" xlink:href="#DejaVuSans-40"/>
     <use transform="translate(178.4375 0.015625)" xlink:href="#DejaVuSans-100"/>
     <use transform="translate(241.914062 0.015625)" xlink:href="#DejaVuSans-117"/>
     <use transform="translate(305.292969 0.015625)" xlink:href="#DejaVuSans-114"/>
     <use transform="translate(346.40625 0.015625)" xlink:href="#DejaVuSans-58"/>
     <use transform="translate(380.097656 0.015625)" xlink:href="#DejaVuSans-32"/>
     <use transform="translate(411.884766 0.015625)" xlink:href="#DejaVuSans-53"/>
     <use transform="translate(475.507812 0.015625)" xlink:href="#DejaVuSans-46"/>
     <use transform="translate(507.294922 0.015625)" xlink:href="#DejaVuSans-48"/>
     <use transform="translate(570.917969 0.015625)" xlink:href="#DejaVuSans-115"/>
     <use transform="translate(623.017578 0.015625)" xlink:href="#DejaVuSans-101"/>
     <use transform="translate(684.541016 0.015625)" xlink:href="#DejaVuSans-99"/>
     <use transform="translate(739.521484 0.015625)" xlink:href="#DejaVuSans-41"/>
    </g>
   </g>
  </g>
  <g id="axes_3">
   <g id="patch_16">
    <path d="M 570.18125 165.2 
L 790.821875 165.2 
L 790.821875 31.4 
L 570.18125 31.4 
z
" style="fill:#ffffff;"/>
   </g>
   <g id="patch_17">
    <path clip-path="url(#p8110737f39)" d="M 707.265358 165.2 
L 707.265358 160.391375 
L 708.046703 160.391375 
L 708.046703 157.987062 
L 708.828048 157.987062 
L 708.828048 141.156873 
L 709.609394 141.156873 
L 709.609394 143.561186 
L 710.390739 143.561186 
L 710.390739 125.528841 
L 711.172084 125.528841 
L 711.172084 129.13531 
L 711.953429 129.13531 
L 711.953429 101.485714 
L 712.734775 101.485714 
L 712.734775 95.474933 
L 713.51612 95.474933 
L 713.51612 59.410243 
L 714.297465 59.410243 
L 714.297465 41.377898 
L 715.078811 41.377898 
L 715.078811 37.771429 
L 715.860156 37.771429 
L 715.860156 70.22965 
L 716.641501 70.22965 
L 716.641501 53.399461 
L 717.422846 53.399461 
L 717.422846 71.431806 
L 718.204192 71.431806 
L 718.204192 83.453369 
L 718.985537 83.453369 
L 718.985537 107.496496 
L 719.766882 107.496496 
L 719.766882 115.91159 
L 720.548228 115.91159 
L 720.548228 138.752561 
L 721.329573 138.752561 
L 721.329573 143.561186 
L 722.110918 143.561186 
L 722.110918 145.965499 
L 722.892263 145.965499 
L 722.892263 155.582749 
L 723.673609 155.582749 
L 723.673609 160.391375 
L 724.454954 160.391375 
L 724.454954 160.391375 
L 725.236299 160.391375 
L 725.236299 163.997844 
L 726.017645 163.997844 
L 726.017645 163.997844 
L 726.79899 163.997844 
L 726.79899 165.2 
" style="fill:none;stroke:#1f77b4;stroke-linejoin:miter;stroke-width:2;"/>
   </g>
   <g id="patch_18">
    <path clip-path="url(#p8110737f39)" d="M 617.327194 165.2 
L 617.327194 165.00563 
L 622.15972 165.00563 
L 622.15972 165.00563 
L 626.992246 165.00563 
L 626.992246 164.422519 
L 631.824772 164.422519 
L 631.824772 165.2 
L 636.657297 165.2 
L 636.657297 164.422519 
L 641.489823 164.422519 
L 641.489823 163.645038 
L 646.322349 163.645038 
L 646.322349 161.312595 
L 651.154875 161.312595 
L 651.154875 160.146374 
L 655.987401 160.146374 
L 655.987401 159.174523 
L 660.819926 159.174523 
L 660.819926 154.704007 
L 665.652452 154.704007 
L 665.652452 153.732156 
L 670.484978 153.732156 
L 670.484978 149.650381 
L 675.317504 149.650381 
L 675.317504 143.236163 
L 680.15003 143.236163 
L 680.15003 147.512308 
L 684.982555 147.512308 
L 684.982555 141.486831 
L 689.815081 141.486831 
L 689.815081 148.8729 
L 694.647607 148.8729 
L 694.647607 145.374236 
L 699.480133 145.374236 
L 699.480133 154.704007 
L 704.312659 154.704007 
L 704.312659 154.704007 
L 709.145185 154.704007 
L 709.145185 158.202671 
L 713.97771 158.202671 
L 713.97771 160.146374 
L 718.810236 160.146374 
L 718.810236 162.090076 
L 723.642762 162.090076 
L 723.642762 163.645038 
L 728.475288 163.645038 
L 728.475288 164.81126 
L 733.307814 164.81126 
L 733.307814 164.422519 
L 738.140339 164.422519 
L 738.140339 165.2 
" style="fill:none;stroke:#d62728;stroke-linejoin:miter;stroke-width:2;"/>
   </g>
   <g id="matplotlib.axis_5">
    <g id="xtick_11">
     <g id="line2d_43">
      <path clip-path="url(#p8110737f39)" d="M 570.18125 165.2 
L 570.18125 31.4 
" style="fill:none;stroke:#d9d9d9;stroke-linecap:square;stroke-width:0.5;"/>
     </g>
     <g id="line2d_44">
      <g>
       <use style="stroke:#000000;stroke-width:0.8;" x="570.18125" xlink:href="#mc65176fbb8" y="165.2"/>
      </g>
     </g>
     <g id="text_26">
      <!-- −1.0 -->
      <g transform="translate(553.183281 182.837813)scale(0.14 -0.14)">
       <use xlink:href="#DejaVuSans-8722"/>
       <use x="83.789062" xlink:href="#DejaVuSans-49"/>
       <use x="147.412109" xlink:href="#DejaVuSans-46"/>
       <use x="179.199219" xlink:href="#DejaVuSans-48"/>
      </g>
     </g>
    </g>
    <g id="xtick_12">
     <g id="line2d_45">
      <path clip-path="url(#p8110737f39)" d="M 643.728125 165.2 
L 643.728125 31.4 
" style="fill:none;stroke:#d9d9d9;stroke-linecap:square;stroke-width:0.5;"/>
     </g>
     <g id="line2d_46">
      <g>
       <use style="stroke:#000000;stroke-width:0.8;" x="643.728125" xlink:href="#mc65176fbb8" y="165.2"/>
      </g>
     </g>
     <g id="text_27">
      <!-- −0.5 -->
      <g transform="translate(626.730156 182.837813)scale(0.14 -0.14)">
       <use xlink:href="#DejaVuSans-8722"/>
       <use x="83.789062" xlink:href="#DejaVuSans-48"/>
       <use x="147.412109" xlink:href="#DejaVuSans-46"/>
       <use x="179.199219" xlink:href="#DejaVuSans-53"/>
      </g>
     </g>
    </g>
    <g id="xtick_13">
     <g id="line2d_47">
      <path clip-path="url(#p8110737f39)" d="M 717.275 165.2 
L 717.275 31.4 
" style="fill:none;stroke:#d9d9d9;stroke-linecap:square;stroke-width:0.5;"/>
     </g>
     <g id="line2d_48">
      <g>
       <use style="stroke:#000000;stroke-width:0.8;" x="717.275" xlink:href="#mc65176fbb8" y="165.2"/>
      </g>
     </g>
     <g id="text_28">
      <!-- 0.0 -->
      <g transform="translate(706.142812 182.837813)scale(0.14 -0.14)">
       <use xlink:href="#DejaVuSans-48"/>
       <use x="63.623047" xlink:href="#DejaVuSans-46"/>
       <use x="95.410156" xlink:href="#DejaVuSans-48"/>
      </g>
     </g>
    </g>
    <g id="xtick_14">
     <g id="line2d_49">
      <path clip-path="url(#p8110737f39)" d="M 790.821875 165.2 
L 790.821875 31.4 
" style="fill:none;stroke:#d9d9d9;stroke-linecap:square;stroke-width:0.5;"/>
     </g>
     <g id="line2d_50">
      <g>
       <use style="stroke:#000000;stroke-width:0.8;" x="790.821875" xlink:href="#mc65176fbb8" y="165.2"/>
      </g>
     </g>
     <g id="text_29">
      <!-- 0.5 -->
      <g transform="translate(779.689687 182.837813)scale(0.14 -0.14)">
       <use xlink:href="#DejaVuSans-48"/>
       <use x="63.623047" xlink:href="#DejaVuSans-46"/>
       <use x="95.410156" xlink:href="#DejaVuSans-53"/>
      </g>
     </g>
    </g>
    <g id="text_30">
     <!-- Error (cm) -->
     <g transform="translate(640.029063 201.906875)scale(0.16 -0.16)">
      <use xlink:href="#DejaVuSans-69"/>
      <use x="63.183594" xlink:href="#DejaVuSans-114"/>
      <use x="102.546875" xlink:href="#DejaVuSans-114"/>
      <use x="141.410156" xlink:href="#DejaVuSans-111"/>
      <use x="202.591797" xlink:href="#DejaVuSans-114"/>
      <use x="243.705078" xlink:href="#DejaVuSans-32"/>
      <use x="275.492188" xlink:href="#DejaVuSans-40"/>
      <use x="314.505859" xlink:href="#DejaVuSans-99"/>
      <use x="369.486328" xlink:href="#DejaVuSans-109"/>
      <use x="466.898438" xlink:href="#DejaVuSans-41"/>
     </g>
    </g>
   </g>
   <g id="matplotlib.axis_6">
    <g id="ytick_12">
     <g id="line2d_51">
      <path clip-path="url(#p8110737f39)" d="M 570.18125 165.2 
L 790.821875 165.2 
" style="fill:none;stroke:#d9d9d9;stroke-linecap:square;stroke-width:0.5;"/>
     </g>
     <g id="line2d_52">
      <g>
       <use style="stroke:#000000;stroke-width:0.8;" x="570.18125" xlink:href="#m1d9dca6110" y="165.2"/>
      </g>
     </g>
     <g id="text_31">
      <!-- 0 -->
      <g transform="translate(554.27375 170.518906)scale(0.14 -0.14)">
       <use xlink:href="#DejaVuSans-48"/>
      </g>
     </g>
    </g>
    <g id="ytick_13">
     <g id="line2d_53">
      <path clip-path="url(#p8110737f39)" d="M 570.18125 133.271411 
L 790.821875 133.271411 
" style="fill:none;stroke:#d9d9d9;stroke-linecap:square;stroke-width:0.5;"/>
     </g>
     <g id="line2d_54">
      <g>
       <use style="stroke:#000000;stroke-width:0.8;" x="570.18125" xlink:href="#m1d9dca6110" y="133.271411"/>
      </g>
     </g>
     <g id="text_32">
      <!-- 5 -->
      <g transform="translate(554.27375 138.590317)scale(0.14 -0.14)">
       <use xlink:href="#DejaVuSans-53"/>
      </g>
     </g>
    </g>
    <g id="ytick_14">
     <g id="line2d_55">
      <path clip-path="url(#p8110737f39)" d="M 570.18125 101.342821 
L 790.821875 101.342821 
" style="fill:none;stroke:#d9d9d9;stroke-linecap:square;stroke-width:0.5;"/>
     </g>
     <g id="line2d_56">
      <g>
       <use style="stroke:#000000;stroke-width:0.8;" x="570.18125" xlink:href="#m1d9dca6110" y="101.342821"/>
      </g>
     </g>
     <g id="text_33">
      <!-- 10 -->
      <g transform="translate(545.36625 106.661728)scale(0.14 -0.14)">
       <use xlink:href="#DejaVuSans-49"/>
       <use x="63.623047" xlink:href="#DejaVuSans-48"/>
      </g>
     </g>
    </g>
    <g id="ytick_15">
     <g id="line2d_57">
      <path clip-path="url(#p8110737f39)" d="M 570.18125 69.414232 
L 790.821875 69.414232 
" style="fill:none;stroke:#d9d9d9;stroke-linecap:square;stroke-width:0.5;"/>
     </g>
     <g id="line2d_58">
      <g>
       <use style="stroke:#000000;stroke-width:0.8;" x="570.18125" xlink:href="#m1d9dca6110" y="69.414232"/>
      </g>
     </g>
     <g id="text_34">
      <!-- 15 -->
      <g transform="translate(545.36625 74.733138)scale(0.14 -0.14)">
       <use xlink:href="#DejaVuSans-49"/>
       <use x="63.623047" xlink:href="#DejaVuSans-53"/>
      </g>
     </g>
    </g>
    <g id="ytick_16">
     <g id="line2d_59">
      <path clip-path="url(#p8110737f39)" d="M 570.18125 37.485643 
L 790.821875 37.485643 
" style="fill:none;stroke:#d9d9d9;stroke-linecap:square;stroke-width:0.5;"/>
     </g>
     <g id="line2d_60">
      <g>
       <use style="stroke:#000000;stroke-width:0.8;" x="570.18125" xlink:href="#m1d9dca6110" y="37.485643"/>
      </g>
     </g>
     <g id="text_35">
      <!-- 20 -->
      <g transform="translate(545.36625 42.804549)scale(0.14 -0.14)">
       <use xlink:href="#DejaVuSans-50"/>
       <use x="63.623047" xlink:href="#DejaVuSans-48"/>
      </g>
     </g>
    </g>
   </g>
   <g id="patch_19">
    <path d="M 570.18125 165.2 
L 570.18125 31.4 
" style="fill:none;stroke:#000000;stroke-linecap:square;stroke-linejoin:miter;stroke-width:0.8;"/>
   </g>
   <g id="patch_20">
    <path d="M 790.821875 165.2 
L 790.821875 31.4 
" style="fill:none;stroke:#000000;stroke-linecap:square;stroke-linejoin:miter;stroke-width:0.8;"/>
   </g>
   <g id="patch_21">
    <path d="M 570.18125 165.2 
L 790.821875 165.2 
" style="fill:none;stroke:#000000;stroke-linecap:square;stroke-linejoin:miter;stroke-width:0.8;"/>
   </g>
   <g id="patch_22">
    <path d="M 570.18125 31.4 
L 790.821875 31.4 
" style="fill:none;stroke:#000000;stroke-linecap:square;stroke-linejoin:miter;stroke-width:0.8;"/>
   </g>
   <g id="text_36">
    <!-- $p_z$ (dur: 5.0sec) -->
    <defs>
     <path d="M 11.625 54.6875 
L 54.296875 54.6875 
L 52.6875 46.484375 
L 11.53125 7.171875 
L 45.515625 7.171875 
L 44.09375 0 
L -0.296875 0 
L 1.3125 8.203125 
L 42.484375 47.515625 
L 10.203125 47.515625 
z
" id="DejaVuSans-Oblique-122"/>
    </defs>
    <g transform="translate(618.581563 25.4)scale(0.16 -0.16)">
     <use transform="translate(0 0.015625)" xlink:href="#DejaVuSans-Oblique-112"/>
     <use transform="translate(63.476562 -16.390625)scale(0.7)" xlink:href="#DejaVuSans-Oblique-122"/>
     <use transform="translate(102.954102 0.015625)" xlink:href="#DejaVuSans-32"/>
     <use transform="translate(134.741211 0.015625)" xlink:href="#DejaVuSans-40"/>
     <use transform="translate(173.754883 0.015625)" xlink:href="#DejaVuSans-100"/>
     <use transform="translate(237.231445 0.015625)" xlink:href="#DejaVuSans-117"/>
     <use transform="translate(300.610352 0.015625)" xlink:href="#DejaVuSans-114"/>
     <use transform="translate(341.723633 0.015625)" xlink:href="#DejaVuSans-58"/>
     <use transform="translate(375.415039 0.015625)" xlink:href="#DejaVuSans-32"/>
     <use transform="translate(407.202148 0.015625)" xlink:href="#DejaVuSans-53"/>
     <use transform="translate(470.825195 0.015625)" xlink:href="#DejaVuSans-46"/>
     <use transform="translate(502.612305 0.015625)" xlink:href="#DejaVuSans-48"/>
     <use transform="translate(566.235352 0.015625)" xlink:href="#DejaVuSans-115"/>
     <use transform="translate(618.334961 0.015625)" xlink:href="#DejaVuSans-101"/>
     <use transform="translate(679.858398 0.015625)" xlink:href="#DejaVuSans-99"/>
     <use transform="translate(734.838867 0.015625)" xlink:href="#DejaVuSans-41"/>
    </g>
   </g>
  </g>
  <g id="axes_4">
   <g id="patch_23">
    <path d="M 837.496875 165.2 
L 1058.1375 165.2 
L 1058.1375 31.4 
L 837.496875 31.4 
z
" style="fill:#ffffff;"/>
   </g>
   <g id="patch_24">
    <path clip-path="url(#p43a3fd3ab5)" d="M 996.135472 165.2 
L 996.135472 162.964411 
L 997.119348 162.964411 
L 997.119348 165.2 
L 998.103224 165.2 
L 998.103224 164.082206 
L 999.0871 164.082206 
L 999.0871 159.611028 
L 1000.070976 159.611028 
L 1000.070976 164.082206 
L 1001.054852 164.082206 
L 1001.054852 149.550877 
L 1002.038728 149.550877 
L 1002.038728 149.550877 
L 1003.022604 149.550877 
L 1003.022604 137.255138 
L 1004.00648 137.255138 
L 1004.00648 132.78396 
L 1004.990356 132.78396 
L 1004.990356 111.545865 
L 1005.974232 111.545865 
L 1005.974232 88.07218 
L 1006.958108 88.07218 
L 1006.958108 64.598496 
L 1007.941984 64.598496 
L 1007.941984 74.658647 
L 1008.92586 74.658647 
L 1008.92586 46.713784 
L 1009.909736 46.713784 
L 1009.909736 37.771429 
L 1010.893612 37.771429 
L 1010.893612 52.302757 
L 1011.877488 52.302757 
L 1011.877488 73.540852 
L 1012.861364 73.540852 
L 1012.861364 84.718797 
L 1013.84524 84.718797 
L 1013.84524 119.370426 
L 1014.829116 119.370426 
L 1014.829116 111.545865 
L 1015.812991 111.545865 
L 1015.812991 138.372932 
L 1016.796867 138.372932 
L 1016.796867 146.197494 
L 1017.780743 146.197494 
L 1017.780743 158.493233 
L 1018.764619 158.493233 
L 1018.764619 157.375439 
L 1019.748495 157.375439 
L 1019.748495 161.846617 
L 1020.732371 161.846617 
L 1020.732371 165.2 
" style="fill:none;stroke:#1f77b4;stroke-linejoin:miter;stroke-width:2;"/>
   </g>
   <g id="patch_25">
    <path clip-path="url(#p43a3fd3ab5)" d="M 850.372782 165.2 
L 850.372782 164.61352 
L 855.998402 164.61352 
L 855.998402 165.004507 
L 861.624022 165.004507 
L 861.624022 164.418027 
L 867.249642 164.418027 
L 867.249642 164.418027 
L 872.875263 164.418027 
L 872.875263 162.658587 
L 878.500883 162.658587 
L 878.500883 161.485627 
L 884.126503 161.485627 
L 884.126503 159.139707 
L 889.752123 159.139707 
L 889.752123 159.726187 
L 895.377744 159.726187 
L 895.377744 154.252374 
L 901.003364 154.252374 
L 901.003364 152.101948 
L 906.628984 152.101948 
L 906.628984 150.538001 
L 912.254604 150.538001 
L 912.254604 143.695735 
L 917.880224 143.695735 
L 917.880224 141.545309 
L 923.505845 141.545309 
L 923.505845 140.958829 
L 929.131465 140.958829 
L 929.131465 146.628135 
L 934.757085 146.628135 
L 934.757085 149.951521 
L 940.382705 149.951521 
L 940.382705 151.515468 
L 946.008325 151.515468 
L 946.008325 157.380267 
L 951.633946 157.380267 
L 951.633946 161.68112 
L 957.259566 161.68112 
L 957.259566 161.68112 
L 962.885186 161.68112 
L 962.885186 163.44056 
L 968.510806 163.44056 
L 968.510806 162.85408 
L 974.136427 162.85408 
L 974.136427 164.809013 
L 979.762047 164.809013 
L 979.762047 165.004507 
L 985.387667 165.004507 
L 985.387667 165.004507 
L 991.013287 165.004507 
L 991.013287 165.2 
" style="fill:none;stroke:#d62728;stroke-linejoin:miter;stroke-width:2;"/>
   </g>
   <g id="matplotlib.axis_7">
    <g id="xtick_15">
     <g id="line2d_61">
      <path clip-path="url(#p43a3fd3ab5)" d="M 837.496875 165.2 
L 837.496875 31.4 
" style="fill:none;stroke:#d9d9d9;stroke-linecap:square;stroke-width:0.5;"/>
     </g>
     <g id="line2d_62">
      <g>
       <use style="stroke:#000000;stroke-width:0.8;" x="837.496875" xlink:href="#mc65176fbb8" y="165.2"/>
      </g>
     </g>
     <g id="text_37">
      <!-- −2.0 -->
      <g transform="translate(820.498906 182.837813)scale(0.14 -0.14)">
       <use xlink:href="#DejaVuSans-8722"/>
       <use x="83.789062" xlink:href="#DejaVuSans-50"/>
       <use x="147.412109" xlink:href="#DejaVuSans-46"/>
       <use x="179.199219" xlink:href="#DejaVuSans-48"/>
      </g>
     </g>
    </g>
    <g id="xtick_16">
     <g id="line2d_63">
      <path clip-path="url(#p43a3fd3ab5)" d="M 881.625 165.2 
L 881.625 31.4 
" style="fill:none;stroke:#d9d9d9;stroke-linecap:square;stroke-width:0.5;"/>
     </g>
     <g id="line2d_64">
      <g>
       <use style="stroke:#000000;stroke-width:0.8;" x="881.625" xlink:href="#mc65176fbb8" y="165.2"/>
      </g>
     </g>
     <g id="text_38">
      <!-- −1.5 -->
      <g transform="translate(864.627031 182.837813)scale(0.14 -0.14)">
       <use xlink:href="#DejaVuSans-8722"/>
       <use x="83.789062" xlink:href="#DejaVuSans-49"/>
       <use x="147.412109" xlink:href="#DejaVuSans-46"/>
       <use x="179.199219" xlink:href="#DejaVuSans-53"/>
      </g>
     </g>
    </g>
    <g id="xtick_17">
     <g id="line2d_65">
      <path clip-path="url(#p43a3fd3ab5)" d="M 925.753125 165.2 
L 925.753125 31.4 
" style="fill:none;stroke:#d9d9d9;stroke-linecap:square;stroke-width:0.5;"/>
     </g>
     <g id="line2d_66">
      <g>
       <use style="stroke:#000000;stroke-width:0.8;" x="925.753125" xlink:href="#mc65176fbb8" y="165.2"/>
      </g>
     </g>
     <g id="text_39">
      <!-- −1.0 -->
      <g transform="translate(908.755156 182.837813)scale(0.14 -0.14)">
       <use xlink:href="#DejaVuSans-8722"/>
       <use x="83.789062" xlink:href="#DejaVuSans-49"/>
       <use x="147.412109" xlink:href="#DejaVuSans-46"/>
       <use x="179.199219" xlink:href="#DejaVuSans-48"/>
      </g>
     </g>
    </g>
    <g id="xtick_18">
     <g id="line2d_67">
      <path clip-path="url(#p43a3fd3ab5)" d="M 969.88125 165.2 
L 969.88125 31.4 
" style="fill:none;stroke:#d9d9d9;stroke-linecap:square;stroke-width:0.5;"/>
     </g>
     <g id="line2d_68">
      <g>
       <use style="stroke:#000000;stroke-width:0.8;" x="969.88125" xlink:href="#mc65176fbb8" y="165.2"/>
      </g>
     </g>
     <g id="text_40">
      <!-- −0.5 -->
      <g transform="translate(952.883281 182.837813)scale(0.14 -0.14)">
       <use xlink:href="#DejaVuSans-8722"/>
       <use x="83.789062" xlink:href="#DejaVuSans-48"/>
       <use x="147.412109" xlink:href="#DejaVuSans-46"/>
       <use x="179.199219" xlink:href="#DejaVuSans-53"/>
      </g>
     </g>
    </g>
    <g id="xtick_19">
     <g id="line2d_69">
      <path clip-path="url(#p43a3fd3ab5)" d="M 1014.009375 165.2 
L 1014.009375 31.4 
" style="fill:none;stroke:#d9d9d9;stroke-linecap:square;stroke-width:0.5;"/>
     </g>
     <g id="line2d_70">
      <g>
       <use style="stroke:#000000;stroke-width:0.8;" x="1014.009375" xlink:href="#mc65176fbb8" y="165.2"/>
      </g>
     </g>
     <g id="text_41">
      <!-- 0.0 -->
      <g transform="translate(1002.877188 182.837813)scale(0.14 -0.14)">
       <use xlink:href="#DejaVuSans-48"/>
       <use x="63.623047" xlink:href="#DejaVuSans-46"/>
       <use x="95.410156" xlink:href="#DejaVuSans-48"/>
      </g>
     </g>
    </g>
    <g id="xtick_20">
     <g id="line2d_71">
      <path clip-path="url(#p43a3fd3ab5)" d="M 1058.1375 165.2 
L 1058.1375 31.4 
" style="fill:none;stroke:#d9d9d9;stroke-linecap:square;stroke-width:0.5;"/>
     </g>
     <g id="line2d_72">
      <g>
       <use style="stroke:#000000;stroke-width:0.8;" x="1058.1375" xlink:href="#mc65176fbb8" y="165.2"/>
      </g>
     </g>
     <g id="text_42">
      <!-- 0.5 -->
      <g transform="translate(1047.005312 182.837813)scale(0.14 -0.14)">
       <use xlink:href="#DejaVuSans-48"/>
       <use x="63.623047" xlink:href="#DejaVuSans-46"/>
       <use x="95.410156" xlink:href="#DejaVuSans-53"/>
      </g>
     </g>
    </g>
    <g id="text_43">
     <!-- Error (cm) -->
     <g transform="translate(907.344688 201.906875)scale(0.16 -0.16)">
      <use xlink:href="#DejaVuSans-69"/>
      <use x="63.183594" xlink:href="#DejaVuSans-114"/>
      <use x="102.546875" xlink:href="#DejaVuSans-114"/>
      <use x="141.410156" xlink:href="#DejaVuSans-111"/>
      <use x="202.591797" xlink:href="#DejaVuSans-114"/>
      <use x="243.705078" xlink:href="#DejaVuSans-32"/>
      <use x="275.492188" xlink:href="#DejaVuSans-40"/>
      <use x="314.505859" xlink:href="#DejaVuSans-99"/>
      <use x="369.486328" xlink:href="#DejaVuSans-109"/>
      <use x="466.898438" xlink:href="#DejaVuSans-41"/>
     </g>
    </g>
   </g>
   <g id="matplotlib.axis_8">
    <g id="ytick_17">
     <g id="line2d_73">
      <path clip-path="url(#p43a3fd3ab5)" d="M 837.496875 165.2 
L 1058.1375 165.2 
" style="fill:none;stroke:#d9d9d9;stroke-linecap:square;stroke-width:0.5;"/>
     </g>
     <g id="line2d_74">
      <g>
       <use style="stroke:#000000;stroke-width:0.8;" x="837.496875" xlink:href="#m1d9dca6110" y="165.2"/>
      </g>
     </g>
     <g id="text_44">
      <!-- 0 -->
      <g transform="translate(821.589375 170.518906)scale(0.14 -0.14)">
       <use xlink:href="#DejaVuSans-48"/>
      </g>
     </g>
    </g>
    <g id="ytick_18">
     <g id="line2d_75">
      <path clip-path="url(#p43a3fd3ab5)" d="M 837.496875 140.277773 
L 1058.1375 140.277773 
" style="fill:none;stroke:#d9d9d9;stroke-linecap:square;stroke-width:0.5;"/>
     </g>
     <g id="line2d_76">
      <g>
       <use style="stroke:#000000;stroke-width:0.8;" x="837.496875" xlink:href="#m1d9dca6110" y="140.277773"/>
      </g>
     </g>
     <g id="text_45">
      <!-- 2 -->
      <g transform="translate(821.589375 145.596679)scale(0.14 -0.14)">
       <use xlink:href="#DejaVuSans-50"/>
      </g>
     </g>
    </g>
    <g id="ytick_19">
     <g id="line2d_77">
      <path clip-path="url(#p43a3fd3ab5)" d="M 837.496875 115.355546 
L 1058.1375 115.355546 
" style="fill:none;stroke:#d9d9d9;stroke-linecap:square;stroke-width:0.5;"/>
     </g>
     <g id="line2d_78">
      <g>
       <use style="stroke:#000000;stroke-width:0.8;" x="837.496875" xlink:href="#m1d9dca6110" y="115.355546"/>
      </g>
     </g>
     <g id="text_46">
      <!-- 4 -->
      <defs>
       <path d="M 37.796875 64.3125 
L 12.890625 25.390625 
L 37.796875 25.390625 
z
M 35.203125 72.90625 
L 47.609375 72.90625 
L 47.609375 25.390625 
L 58.015625 25.390625 
L 58.015625 17.1875 
L 47.609375 17.1875 
L 47.609375 0 
L 37.796875 0 
L 37.796875 17.1875 
L 4.890625 17.1875 
L 4.890625 26.703125 
z
" id="DejaVuSans-52"/>
      </defs>
      <g transform="translate(821.589375 120.674452)scale(0.14 -0.14)">
       <use xlink:href="#DejaVuSans-52"/>
      </g>
     </g>
    </g>
    <g id="ytick_20">
     <g id="line2d_79">
      <path clip-path="url(#p43a3fd3ab5)" d="M 837.496875 90.433319 
L 1058.1375 90.433319 
" style="fill:none;stroke:#d9d9d9;stroke-linecap:square;stroke-width:0.5;"/>
     </g>
     <g id="line2d_80">
      <g>
       <use style="stroke:#000000;stroke-width:0.8;" x="837.496875" xlink:href="#m1d9dca6110" y="90.433319"/>
      </g>
     </g>
     <g id="text_47">
      <!-- 6 -->
      <defs>
       <path d="M 33.015625 40.375 
Q 26.375 40.375 22.484375 35.828125 
Q 18.609375 31.296875 18.609375 23.390625 
Q 18.609375 15.53125 22.484375 10.953125 
Q 26.375 6.390625 33.015625 6.390625 
Q 39.65625 6.390625 43.53125 10.953125 
Q 47.40625 15.53125 47.40625 23.390625 
Q 47.40625 31.296875 43.53125 35.828125 
Q 39.65625 40.375 33.015625 40.375 
z
M 52.59375 71.296875 
L 52.59375 62.3125 
Q 48.875 64.0625 45.09375 64.984375 
Q 41.3125 65.921875 37.59375 65.921875 
Q 27.828125 65.921875 22.671875 59.328125 
Q 17.53125 52.734375 16.796875 39.40625 
Q 19.671875 43.65625 24.015625 45.921875 
Q 28.375 48.1875 33.59375 48.1875 
Q 44.578125 48.1875 50.953125 41.515625 
Q 57.328125 34.859375 57.328125 23.390625 
Q 57.328125 12.15625 50.6875 5.359375 
Q 44.046875 -1.421875 33.015625 -1.421875 
Q 20.359375 -1.421875 13.671875 8.265625 
Q 6.984375 17.96875 6.984375 36.375 
Q 6.984375 53.65625 15.1875 63.9375 
Q 23.390625 74.21875 37.203125 74.21875 
Q 40.921875 74.21875 44.703125 73.484375 
Q 48.484375 72.75 52.59375 71.296875 
z
" id="DejaVuSans-54"/>
      </defs>
      <g transform="translate(821.589375 95.752225)scale(0.14 -0.14)">
       <use xlink:href="#DejaVuSans-54"/>
      </g>
     </g>
    </g>
    <g id="ytick_21">
     <g id="line2d_81">
      <path clip-path="url(#p43a3fd3ab5)" d="M 837.496875 65.511092 
L 1058.1375 65.511092 
" style="fill:none;stroke:#d9d9d9;stroke-linecap:square;stroke-width:0.5;"/>
     </g>
     <g id="line2d_82">
      <g>
       <use style="stroke:#000000;stroke-width:0.8;" x="837.496875" xlink:href="#m1d9dca6110" y="65.511092"/>
      </g>
     </g>
     <g id="text_48">
      <!-- 8 -->
      <defs>
       <path d="M 31.78125 34.625 
Q 24.75 34.625 20.71875 30.859375 
Q 16.703125 27.09375 16.703125 20.515625 
Q 16.703125 13.921875 20.71875 10.15625 
Q 24.75 6.390625 31.78125 6.390625 
Q 38.8125 6.390625 42.859375 10.171875 
Q 46.921875 13.96875 46.921875 20.515625 
Q 46.921875 27.09375 42.890625 30.859375 
Q 38.875 34.625 31.78125 34.625 
z
M 21.921875 38.8125 
Q 15.578125 40.375 12.03125 44.71875 
Q 8.5 49.078125 8.5 55.328125 
Q 8.5 64.0625 14.71875 69.140625 
Q 20.953125 74.21875 31.78125 74.21875 
Q 42.671875 74.21875 48.875 69.140625 
Q 55.078125 64.0625 55.078125 55.328125 
Q 55.078125 49.078125 51.53125 44.71875 
Q 48 40.375 41.703125 38.8125 
Q 48.828125 37.15625 52.796875 32.3125 
Q 56.78125 27.484375 56.78125 20.515625 
Q 56.78125 9.90625 50.3125 4.234375 
Q 43.84375 -1.421875 31.78125 -1.421875 
Q 19.734375 -1.421875 13.25 4.234375 
Q 6.78125 9.90625 6.78125 20.515625 
Q 6.78125 27.484375 10.78125 32.3125 
Q 14.796875 37.15625 21.921875 38.8125 
z
M 18.3125 54.390625 
Q 18.3125 48.734375 21.84375 45.5625 
Q 25.390625 42.390625 31.78125 42.390625 
Q 38.140625 42.390625 41.71875 45.5625 
Q 45.3125 48.734375 45.3125 54.390625 
Q 45.3125 60.0625 41.71875 63.234375 
Q 38.140625 66.40625 31.78125 66.40625 
Q 25.390625 66.40625 21.84375 63.234375 
Q 18.3125 60.0625 18.3125 54.390625 
z
" id="DejaVuSans-56"/>
      </defs>
      <g transform="translate(821.589375 70.829998)scale(0.14 -0.14)">
       <use xlink:href="#DejaVuSans-56"/>
      </g>
     </g>
    </g>
    <g id="ytick_22">
     <g id="line2d_83">
      <path clip-path="url(#p43a3fd3ab5)" d="M 837.496875 40.588865 
L 1058.1375 40.588865 
" style="fill:none;stroke:#d9d9d9;stroke-linecap:square;stroke-width:0.5;"/>
     </g>
     <g id="line2d_84">
      <g>
       <use style="stroke:#000000;stroke-width:0.8;" x="837.496875" xlink:href="#m1d9dca6110" y="40.588865"/>
      </g>
     </g>
     <g id="text_49">
      <!-- 10 -->
      <g transform="translate(812.681875 45.907771)scale(0.14 -0.14)">
       <use xlink:href="#DejaVuSans-49"/>
       <use x="63.623047" xlink:href="#DejaVuSans-48"/>
      </g>
     </g>
    </g>
   </g>
   <g id="patch_26">
    <path d="M 837.496875 165.2 
L 837.496875 31.4 
" style="fill:none;stroke:#000000;stroke-linecap:square;stroke-linejoin:miter;stroke-width:0.8;"/>
   </g>
   <g id="patch_27">
    <path d="M 1058.1375 165.2 
L 1058.1375 31.4 
" style="fill:none;stroke:#000000;stroke-linecap:square;stroke-linejoin:miter;stroke-width:0.8;"/>
   </g>
   <g id="patch_28">
    <path d="M 837.496875 165.2 
L 1058.1375 165.2 
" style="fill:none;stroke:#000000;stroke-linecap:square;stroke-linejoin:miter;stroke-width:0.8;"/>
   </g>
   <g id="patch_29">
    <path d="M 837.496875 31.4 
L 1058.1375 31.4 
" style="fill:none;stroke:#000000;stroke-linecap:square;stroke-linejoin:miter;stroke-width:0.8;"/>
   </g>
   <g id="text_50">
    <!-- $l$ (dur: 5.0sec) -->
    <defs>
     <path d="M 18.3125 75.984375 
L 27.296875 75.984375 
L 12.5 0 
L 3.515625 0 
z
" id="DejaVuSans-Oblique-108"/>
    </defs>
    <g transform="translate(891.897188 25.4)scale(0.16 -0.16)">
     <use transform="translate(0 0.015625)" xlink:href="#DejaVuSans-Oblique-108"/>
     <use transform="translate(27.783203 0.015625)" xlink:href="#DejaVuSans-32"/>
     <use transform="translate(59.570312 0.015625)" xlink:href="#DejaVuSans-40"/>
     <use transform="translate(98.583984 0.015625)" xlink:href="#DejaVuSans-100"/>
     <use transform="translate(162.060547 0.015625)" xlink:href="#DejaVuSans-117"/>
     <use transform="translate(225.439453 0.015625)" xlink:href="#DejaVuSans-114"/>
     <use transform="translate(266.552734 0.015625)" xlink:href="#DejaVuSans-58"/>
     <use transform="translate(300.244141 0.015625)" xlink:href="#DejaVuSans-32"/>
     <use transform="translate(332.03125 0.015625)" xlink:href="#DejaVuSans-53"/>
     <use transform="translate(395.654297 0.015625)" xlink:href="#DejaVuSans-46"/>
     <use transform="translate(427.441406 0.015625)" xlink:href="#DejaVuSans-48"/>
     <use transform="translate(491.064453 0.015625)" xlink:href="#DejaVuSans-115"/>
     <use transform="translate(543.164062 0.015625)" xlink:href="#DejaVuSans-101"/>
     <use transform="translate(604.6875 0.015625)" xlink:href="#DejaVuSans-99"/>
     <use transform="translate(659.667969 0.015625)" xlink:href="#DejaVuSans-41"/>
    </g>
   </g>
  </g>
 </g>
 <defs>
  <clipPath id="p559a80d427">
   <rect height="133.8" width="220.640625" x="35.55" y="31.4"/>
  </clipPath>
  <clipPath id="p72b6d5785d">
   <rect height="133.8" width="220.640625" x="302.865625" y="31.4"/>
  </clipPath>
  <clipPath id="p8110737f39">
   <rect height="133.8" width="220.640625" x="570.18125" y="31.4"/>
  </clipPath>
  <clipPath id="p43a3fd3ab5">
   <rect height="133.8" width="220.640625" x="837.496875" y="31.4"/>
  </clipPath>
 </defs>
</svg>
