<?xml version="1.0" encoding="utf-8" standalone="no"?>
<!DOCTYPE svg PUBLIC "-//W3C//DTD SVG 1.1//EN"
  "http://www.w3.org/Graphics/SVG/1.1/DTD/svg11.dtd">
<!-- Created with matplotlib (https://matplotlib.org/) -->
<svg height="216pt" version="1.1" viewBox="0 0 1080 216" width="1080pt" xmlns="http://www.w3.org/2000/svg" xmlns:xlink="http://www.w3.org/1999/xlink">
 <defs>
  <style type="text/css">
*{stroke-linecap:butt;stroke-linejoin:round;}
  </style>
 </defs>
 <g id="figure_1">
  <g id="patch_1">
   <path d="M 0 216 
L 1080 216 
L 1080 0 
L 0 0 
z
" style="fill:#ffffff;"/>
  </g>
  <g id="axes_1">
   <g id="patch_2">
    <path d="M 35.55 166.2 
L 256.190625 166.2 
L 256.190625 29.8 
L 35.55 29.8 
z
" style="fill:#ffffff;"/>
   </g>
   <g id="patch_3">
    <path clip-path="url(#p8fd538b15b)" d="M 80.477468 166.2 
L 80.477468 165.070393 
L 81.501217 165.070393 
L 81.501217 165.070393 
L 82.524965 165.070393 
L 82.524965 166.2 
L 83.548714 166.2 
L 83.548714 160.551967 
L 84.572463 160.551967 
L 84.572463 159.42236 
L 85.596212 159.42236 
L 85.596212 146.996687 
L 86.619961 146.996687 
L 86.619961 133.441408 
L 87.64371 133.441408 
L 87.64371 122.145342 
L 88.667459 122.145342 
L 88.667459 99.553209 
L 89.691208 99.553209 
L 89.691208 75.83147 
L 90.714957 75.83147 
L 90.714957 73.572257 
L 91.738706 73.572257 
L 91.738706 49.850518 
L 92.762455 49.850518 
L 92.762455 53.239337 
L 93.786203 53.239337 
L 93.786203 44.202484 
L 94.809952 44.202484 
L 94.809952 36.295238 
L 95.833701 36.295238 
L 95.833701 83.738716 
L 96.85745 83.738716 
L 96.85745 108.590062 
L 97.881199 108.590062 
L 97.881199 101.812422 
L 98.904948 101.812422 
L 98.904948 133.441408 
L 99.928697 133.441408 
L 99.928697 143.607867 
L 100.952446 143.607867 
L 100.952446 152.64472 
L 101.976195 152.64472 
L 101.976195 158.292754 
L 102.999944 158.292754 
L 102.999944 163.940787 
L 104.023693 163.940787 
L 104.023693 162.81118 
L 105.047441 162.81118 
L 105.047441 165.070393 
L 106.07119 165.070393 
L 106.07119 166.2 
" style="fill:none;stroke:#1f77b4;stroke-linejoin:miter;stroke-width:2;"/>
   </g>
   <g id="patch_4">
    <path clip-path="url(#p8fd538b15b)" d="M 68.252771 166.2 
L 68.252771 165.785555 
L 73.833404 165.785555 
L 73.833404 166.2 
L 79.414038 166.2 
L 79.414038 166.2 
L 84.994671 166.2 
L 84.994671 165.992777 
L 90.575305 165.992777 
L 90.575305 165.163887 
L 96.155938 165.163887 
L 96.155938 165.785555 
L 101.736571 165.785555 
L 101.736571 164.334996 
L 107.317205 164.334996 
L 107.317205 162.26277 
L 112.897838 162.26277 
L 112.897838 159.776098 
L 118.478472 159.776098 
L 118.478472 157.703872 
L 124.059105 157.703872 
L 124.059105 154.802755 
L 129.639738 154.802755 
L 129.639738 148.793299 
L 135.220372 148.793299 
L 135.220372 146.099405 
L 140.801005 146.099405 
L 140.801005 146.721072 
L 146.381638 146.721072 
L 146.381638 142.369397 
L 151.962272 142.369397 
L 151.962272 143.198288 
L 157.542905 143.198288 
L 157.542905 148.171631 
L 163.123539 148.171631 
L 163.123539 151.072748 
L 168.704172 151.072748 
L 168.704172 154.181087 
L 174.284805 154.181087 
L 174.284805 156.046091 
L 179.865439 156.046091 
L 179.865439 159.361653 
L 185.446072 159.361653 
L 185.446072 162.677215 
L 191.026706 162.677215 
L 191.026706 163.920551 
L 196.607339 163.920551 
L 196.607339 165.578332 
L 202.187972 165.578332 
L 202.187972 165.578332 
L 207.768606 165.578332 
L 207.768606 166.2 
" style="fill:none;stroke:#d62728;stroke-linejoin:miter;stroke-width:2;"/>
   </g>
   <g id="matplotlib.axis_1">
    <g id="xtick_1">
     <g id="line2d_1">
      <path clip-path="url(#p8fd538b15b)" d="M 35.55 166.2 
L 35.55 29.8 
" style="fill:none;stroke:#d9d9d9;stroke-linecap:square;stroke-width:0.5;"/>
     </g>
     <g id="line2d_2">
      <defs>
       <path d="M 0 0 
L 0 3.5 
" id="m29ad682e8e" style="stroke:#000000;stroke-width:0.8;"/>
      </defs>
      <g>
       <use style="stroke:#000000;stroke-width:0.8;" x="35.55" xlink:href="#m29ad682e8e" y="166.2"/>
      </g>
     </g>
     <g id="text_1">
      <!-- −0.5 -->
      <defs>
       <path d="M 10.59375 35.5 
L 73.1875 35.5 
L 73.1875 27.203125 
L 10.59375 27.203125 
z
" id="DejaVuSans-8722"/>
       <path d="M 31.78125 66.40625 
Q 24.171875 66.40625 20.328125 58.90625 
Q 16.5 51.421875 16.5 36.375 
Q 16.5 21.390625 20.328125 13.890625 
Q 24.171875 6.390625 31.78125 6.390625 
Q 39.453125 6.390625 43.28125 13.890625 
Q 47.125 21.390625 47.125 36.375 
Q 47.125 51.421875 43.28125 58.90625 
Q 39.453125 66.40625 31.78125 66.40625 
z
M 31.78125 74.21875 
Q 44.046875 74.21875 50.515625 64.515625 
Q 56.984375 54.828125 56.984375 36.375 
Q 56.984375 17.96875 50.515625 8.265625 
Q 44.046875 -1.421875 31.78125 -1.421875 
Q 19.53125 -1.421875 13.0625 8.265625 
Q 6.59375 17.96875 6.59375 36.375 
Q 6.59375 54.828125 13.0625 64.515625 
Q 19.53125 74.21875 31.78125 74.21875 
z
" id="DejaVuSans-48"/>
       <path d="M 10.6875 12.40625 
L 21 12.40625 
L 21 0 
L 10.6875 0 
z
" id="DejaVuSans-46"/>
       <path d="M 10.796875 72.90625 
L 49.515625 72.90625 
L 49.515625 64.59375 
L 19.828125 64.59375 
L 19.828125 46.734375 
Q 21.96875 47.46875 24.109375 47.828125 
Q 26.265625 48.1875 28.421875 48.1875 
Q 40.625 48.1875 47.75 41.5 
Q 54.890625 34.8125 54.890625 23.390625 
Q 54.890625 11.625 47.5625 5.09375 
Q 40.234375 -1.421875 26.90625 -1.421875 
Q 22.3125 -1.421875 17.546875 -0.640625 
Q 12.796875 0.140625 7.71875 1.703125 
L 7.71875 11.625 
Q 12.109375 9.234375 16.796875 8.0625 
Q 21.484375 6.890625 26.703125 6.890625 
Q 35.15625 6.890625 40.078125 11.328125 
Q 45.015625 15.765625 45.015625 23.390625 
Q 45.015625 31 40.078125 35.4375 
Q 35.15625 39.890625 26.703125 39.890625 
Q 22.75 39.890625 18.8125 39.015625 
Q 14.890625 38.140625 10.796875 36.28125 
z
" id="DejaVuSans-53"/>
      </defs>
      <g transform="translate(18.552031 183.837813)scale(0.14 -0.14)">
       <use xlink:href="#DejaVuSans-8722"/>
       <use x="83.789062" xlink:href="#DejaVuSans-48"/>
       <use x="147.412109" xlink:href="#DejaVuSans-46"/>
       <use x="179.199219" xlink:href="#DejaVuSans-53"/>
      </g>
     </g>
    </g>
    <g id="xtick_2">
     <g id="line2d_3">
      <path clip-path="url(#p8fd538b15b)" d="M 90.710156 166.2 
L 90.710156 29.8 
" style="fill:none;stroke:#d9d9d9;stroke-linecap:square;stroke-width:0.5;"/>
     </g>
     <g id="line2d_4">
      <g>
       <use style="stroke:#000000;stroke-width:0.8;" x="90.710156" xlink:href="#m29ad682e8e" y="166.2"/>
      </g>
     </g>
     <g id="text_2">
      <!-- 0.0 -->
      <g transform="translate(79.577969 183.837813)scale(0.14 -0.14)">
       <use xlink:href="#DejaVuSans-48"/>
       <use x="63.623047" xlink:href="#DejaVuSans-46"/>
       <use x="95.410156" xlink:href="#DejaVuSans-48"/>
      </g>
     </g>
    </g>
    <g id="xtick_3">
     <g id="line2d_5">
      <path clip-path="url(#p8fd538b15b)" d="M 145.870313 166.2 
L 145.870313 29.8 
" style="fill:none;stroke:#d9d9d9;stroke-linecap:square;stroke-width:0.5;"/>
     </g>
     <g id="line2d_6">
      <g>
       <use style="stroke:#000000;stroke-width:0.8;" x="145.870313" xlink:href="#m29ad682e8e" y="166.2"/>
      </g>
     </g>
     <g id="text_3">
      <!-- 0.5 -->
      <g transform="translate(134.738125 183.837813)scale(0.14 -0.14)">
       <use xlink:href="#DejaVuSans-48"/>
       <use x="63.623047" xlink:href="#DejaVuSans-46"/>
       <use x="95.410156" xlink:href="#DejaVuSans-53"/>
      </g>
     </g>
    </g>
    <g id="xtick_4">
     <g id="line2d_7">
      <path clip-path="url(#p8fd538b15b)" d="M 201.030469 166.2 
L 201.030469 29.8 
" style="fill:none;stroke:#d9d9d9;stroke-linecap:square;stroke-width:0.5;"/>
     </g>
     <g id="line2d_8">
      <g>
       <use style="stroke:#000000;stroke-width:0.8;" x="201.030469" xlink:href="#m29ad682e8e" y="166.2"/>
      </g>
     </g>
     <g id="text_4">
      <!-- 1.0 -->
      <defs>
       <path d="M 12.40625 8.296875 
L 28.515625 8.296875 
L 28.515625 63.921875 
L 10.984375 60.40625 
L 10.984375 69.390625 
L 28.421875 72.90625 
L 38.28125 72.90625 
L 38.28125 8.296875 
L 54.390625 8.296875 
L 54.390625 0 
L 12.40625 0 
z
" id="DejaVuSans-49"/>
      </defs>
      <g transform="translate(189.898281 183.837813)scale(0.14 -0.14)">
       <use xlink:href="#DejaVuSans-49"/>
       <use x="63.623047" xlink:href="#DejaVuSans-46"/>
       <use x="95.410156" xlink:href="#DejaVuSans-48"/>
      </g>
     </g>
    </g>
    <g id="xtick_5">
     <g id="line2d_9">
      <path clip-path="url(#p8fd538b15b)" d="M 256.190625 166.2 
L 256.190625 29.8 
" style="fill:none;stroke:#d9d9d9;stroke-linecap:square;stroke-width:0.5;"/>
     </g>
     <g id="line2d_10">
      <g>
       <use style="stroke:#000000;stroke-width:0.8;" x="256.190625" xlink:href="#m29ad682e8e" y="166.2"/>
      </g>
     </g>
     <g id="text_5">
      <!-- 1.5 -->
      <g transform="translate(245.058438 183.837813)scale(0.14 -0.14)">
       <use xlink:href="#DejaVuSans-49"/>
       <use x="63.623047" xlink:href="#DejaVuSans-46"/>
       <use x="95.410156" xlink:href="#DejaVuSans-53"/>
      </g>
     </g>
    </g>
    <g id="text_6">
     <!-- Error (cm) -->
     <defs>
      <path d="M 9.8125 72.90625 
L 55.90625 72.90625 
L 55.90625 64.59375 
L 19.671875 64.59375 
L 19.671875 43.015625 
L 54.390625 43.015625 
L 54.390625 34.71875 
L 19.671875 34.71875 
L 19.671875 8.296875 
L 56.78125 8.296875 
L 56.78125 0 
L 9.8125 0 
z
" id="DejaVuSans-69"/>
      <path d="M 41.109375 46.296875 
Q 39.59375 47.171875 37.8125 47.578125 
Q 36.03125 48 33.890625 48 
Q 26.265625 48 22.1875 43.046875 
Q 18.109375 38.09375 18.109375 28.8125 
L 18.109375 0 
L 9.078125 0 
L 9.078125 54.6875 
L 18.109375 54.6875 
L 18.109375 46.1875 
Q 20.953125 51.171875 25.484375 53.578125 
Q 30.03125 56 36.53125 56 
Q 37.453125 56 38.578125 55.875 
Q 39.703125 55.765625 41.0625 55.515625 
z
" id="DejaVuSans-114"/>
      <path d="M 30.609375 48.390625 
Q 23.390625 48.390625 19.1875 42.75 
Q 14.984375 37.109375 14.984375 27.296875 
Q 14.984375 17.484375 19.15625 11.84375 
Q 23.34375 6.203125 30.609375 6.203125 
Q 37.796875 6.203125 41.984375 11.859375 
Q 46.1875 17.53125 46.1875 27.296875 
Q 46.1875 37.015625 41.984375 42.703125 
Q 37.796875 48.390625 30.609375 48.390625 
z
M 30.609375 56 
Q 42.328125 56 49.015625 48.375 
Q 55.71875 40.765625 55.71875 27.296875 
Q 55.71875 13.875 49.015625 6.21875 
Q 42.328125 -1.421875 30.609375 -1.421875 
Q 18.84375 -1.421875 12.171875 6.21875 
Q 5.515625 13.875 5.515625 27.296875 
Q 5.515625 40.765625 12.171875 48.375 
Q 18.84375 56 30.609375 56 
z
" id="DejaVuSans-111"/>
      <path id="DejaVuSans-32"/>
      <path d="M 31 75.875 
Q 24.46875 64.65625 21.28125 53.65625 
Q 18.109375 42.671875 18.109375 31.390625 
Q 18.109375 20.125 21.3125 9.0625 
Q 24.515625 -2 31 -13.1875 
L 23.1875 -13.1875 
Q 15.875 -1.703125 12.234375 9.375 
Q 8.59375 20.453125 8.59375 31.390625 
Q 8.59375 42.28125 12.203125 53.3125 
Q 15.828125 64.359375 23.1875 75.875 
z
" id="DejaVuSans-40"/>
      <path d="M 48.78125 52.59375 
L 48.78125 44.1875 
Q 44.96875 46.296875 41.140625 47.34375 
Q 37.3125 48.390625 33.40625 48.390625 
Q 24.65625 48.390625 19.8125 42.84375 
Q 14.984375 37.3125 14.984375 27.296875 
Q 14.984375 17.28125 19.8125 11.734375 
Q 24.65625 6.203125 33.40625 6.203125 
Q 37.3125 6.203125 41.140625 7.25 
Q 44.96875 8.296875 48.78125 10.40625 
L 48.78125 2.09375 
Q 45.015625 0.34375 40.984375 -0.53125 
Q 36.96875 -1.421875 32.421875 -1.421875 
Q 20.0625 -1.421875 12.78125 6.34375 
Q 5.515625 14.109375 5.515625 27.296875 
Q 5.515625 40.671875 12.859375 48.328125 
Q 20.21875 56 33.015625 56 
Q 37.15625 56 41.109375 55.140625 
Q 45.0625 54.296875 48.78125 52.59375 
z
" id="DejaVuSans-99"/>
      <path d="M 52 44.1875 
Q 55.375 50.25 60.0625 53.125 
Q 64.75 56 71.09375 56 
Q 79.640625 56 84.28125 50.015625 
Q 88.921875 44.046875 88.921875 33.015625 
L 88.921875 0 
L 79.890625 0 
L 79.890625 32.71875 
Q 79.890625 40.578125 77.09375 44.375 
Q 74.3125 48.1875 68.609375 48.1875 
Q 61.625 48.1875 57.5625 43.546875 
Q 53.515625 38.921875 53.515625 30.90625 
L 53.515625 0 
L 44.484375 0 
L 44.484375 32.71875 
Q 44.484375 40.625 41.703125 44.40625 
Q 38.921875 48.1875 33.109375 48.1875 
Q 26.21875 48.1875 22.15625 43.53125 
Q 18.109375 38.875 18.109375 30.90625 
L 18.109375 0 
L 9.078125 0 
L 9.078125 54.6875 
L 18.109375 54.6875 
L 18.109375 46.1875 
Q 21.1875 51.21875 25.484375 53.609375 
Q 29.78125 56 35.6875 56 
Q 41.65625 56 45.828125 52.96875 
Q 50 49.953125 52 44.1875 
z
" id="DejaVuSans-109"/>
      <path d="M 8.015625 75.875 
L 15.828125 75.875 
Q 23.140625 64.359375 26.78125 53.3125 
Q 30.421875 42.28125 30.421875 31.390625 
Q 30.421875 20.453125 26.78125 9.375 
Q 23.140625 -1.703125 15.828125 -13.1875 
L 8.015625 -13.1875 
Q 14.5 -2 17.703125 9.0625 
Q 20.90625 20.125 20.90625 31.390625 
Q 20.90625 42.671875 17.703125 53.65625 
Q 14.5 64.65625 8.015625 75.875 
z
" id="DejaVuSans-41"/>
     </defs>
     <g transform="translate(110.180156 201.387188)scale(0.14 -0.14)">
      <use xlink:href="#DejaVuSans-69"/>
      <use x="63.183594" xlink:href="#DejaVuSans-114"/>
      <use x="104.28125" xlink:href="#DejaVuSans-114"/>
      <use x="145.363281" xlink:href="#DejaVuSans-111"/>
      <use x="206.544922" xlink:href="#DejaVuSans-114"/>
      <use x="247.658203" xlink:href="#DejaVuSans-32"/>
      <use x="279.445312" xlink:href="#DejaVuSans-40"/>
      <use x="318.458984" xlink:href="#DejaVuSans-99"/>
      <use x="373.439453" xlink:href="#DejaVuSans-109"/>
      <use x="470.851562" xlink:href="#DejaVuSans-41"/>
     </g>
    </g>
   </g>
   <g id="matplotlib.axis_2">
    <g id="ytick_1">
     <g id="line2d_11">
      <path clip-path="url(#p8fd538b15b)" d="M 35.55 166.2 
L 256.190625 166.2 
" style="fill:none;stroke:#d9d9d9;stroke-linecap:square;stroke-width:0.5;"/>
     </g>
     <g id="line2d_12">
      <defs>
       <path d="M 0 0 
L -3.5 0 
" id="m9f5f6eb36e" style="stroke:#000000;stroke-width:0.8;"/>
      </defs>
      <g>
       <use style="stroke:#000000;stroke-width:0.8;" x="35.55" xlink:href="#m9f5f6eb36e" y="166.2"/>
      </g>
     </g>
     <g id="text_7">
      <!-- 0.0 -->
      <g transform="translate(6.285625 171.518906)scale(0.14 -0.14)">
       <use xlink:href="#DejaVuSans-48"/>
       <use x="63.623047" xlink:href="#DejaVuSans-46"/>
       <use x="95.410156" xlink:href="#DejaVuSans-48"/>
      </g>
     </g>
    </g>
    <g id="ytick_2">
     <g id="line2d_13">
      <path clip-path="url(#p8fd538b15b)" d="M 35.55 139.99373 
L 256.190625 139.99373 
" style="fill:none;stroke:#d9d9d9;stroke-linecap:square;stroke-width:0.5;"/>
     </g>
     <g id="line2d_14">
      <g>
       <use style="stroke:#000000;stroke-width:0.8;" x="35.55" xlink:href="#m9f5f6eb36e" y="139.99373"/>
      </g>
     </g>
     <g id="text_8">
      <!-- 2.5 -->
      <defs>
       <path d="M 19.1875 8.296875 
L 53.609375 8.296875 
L 53.609375 0 
L 7.328125 0 
L 7.328125 8.296875 
Q 12.9375 14.109375 22.625 23.890625 
Q 32.328125 33.6875 34.8125 36.53125 
Q 39.546875 41.84375 41.421875 45.53125 
Q 43.3125 49.21875 43.3125 52.78125 
Q 43.3125 58.59375 39.234375 62.25 
Q 35.15625 65.921875 28.609375 65.921875 
Q 23.96875 65.921875 18.8125 64.3125 
Q 13.671875 62.703125 7.8125 59.421875 
L 7.8125 69.390625 
Q 13.765625 71.78125 18.9375 73 
Q 24.125 74.21875 28.421875 74.21875 
Q 39.75 74.21875 46.484375 68.546875 
Q 53.21875 62.890625 53.21875 53.421875 
Q 53.21875 48.921875 51.53125 44.890625 
Q 49.859375 40.875 45.40625 35.40625 
Q 44.1875 33.984375 37.640625 27.21875 
Q 31.109375 20.453125 19.1875 8.296875 
z
" id="DejaVuSans-50"/>
      </defs>
      <g transform="translate(6.285625 145.312636)scale(0.14 -0.14)">
       <use xlink:href="#DejaVuSans-50"/>
       <use x="63.623047" xlink:href="#DejaVuSans-46"/>
       <use x="95.410156" xlink:href="#DejaVuSans-53"/>
      </g>
     </g>
    </g>
    <g id="ytick_3">
     <g id="line2d_15">
      <path clip-path="url(#p8fd538b15b)" d="M 35.55 113.78746 
L 256.190625 113.78746 
" style="fill:none;stroke:#d9d9d9;stroke-linecap:square;stroke-width:0.5;"/>
     </g>
     <g id="line2d_16">
      <g>
       <use style="stroke:#000000;stroke-width:0.8;" x="35.55" xlink:href="#m9f5f6eb36e" y="113.78746"/>
      </g>
     </g>
     <g id="text_9">
      <!-- 5.0 -->
      <g transform="translate(6.285625 119.106367)scale(0.14 -0.14)">
       <use xlink:href="#DejaVuSans-53"/>
       <use x="63.623047" xlink:href="#DejaVuSans-46"/>
       <use x="95.410156" xlink:href="#DejaVuSans-48"/>
      </g>
     </g>
    </g>
    <g id="ytick_4">
     <g id="line2d_17">
      <path clip-path="url(#p8fd538b15b)" d="M 35.55 87.581191 
L 256.190625 87.581191 
" style="fill:none;stroke:#d9d9d9;stroke-linecap:square;stroke-width:0.5;"/>
     </g>
     <g id="line2d_18">
      <g>
       <use style="stroke:#000000;stroke-width:0.8;" x="35.55" xlink:href="#m9f5f6eb36e" y="87.581191"/>
      </g>
     </g>
     <g id="text_10">
      <!-- 7.5 -->
      <defs>
       <path d="M 8.203125 72.90625 
L 55.078125 72.90625 
L 55.078125 68.703125 
L 28.609375 0 
L 18.3125 0 
L 43.21875 64.59375 
L 8.203125 64.59375 
z
" id="DejaVuSans-55"/>
      </defs>
      <g transform="translate(6.285625 92.900097)scale(0.14 -0.14)">
       <use xlink:href="#DejaVuSans-55"/>
       <use x="63.623047" xlink:href="#DejaVuSans-46"/>
       <use x="95.410156" xlink:href="#DejaVuSans-53"/>
      </g>
     </g>
    </g>
    <g id="ytick_5">
     <g id="line2d_19">
      <path clip-path="url(#p8fd538b15b)" d="M 35.55 61.374921 
L 256.190625 61.374921 
" style="fill:none;stroke:#d9d9d9;stroke-linecap:square;stroke-width:0.5;"/>
     </g>
     <g id="line2d_20">
      <g>
       <use style="stroke:#000000;stroke-width:0.8;" x="35.55" xlink:href="#m9f5f6eb36e" y="61.374921"/>
      </g>
     </g>
     <g id="text_11">
      <!-- 10.0 -->
      <g transform="translate(-2.621875 66.693827)scale(0.14 -0.14)">
       <use xlink:href="#DejaVuSans-49"/>
       <use x="63.623047" xlink:href="#DejaVuSans-48"/>
       <use x="127.246094" xlink:href="#DejaVuSans-46"/>
       <use x="159.033203" xlink:href="#DejaVuSans-48"/>
      </g>
     </g>
    </g>
    <g id="ytick_6">
     <g id="line2d_21">
      <path clip-path="url(#p8fd538b15b)" d="M 35.55 35.168651 
L 256.190625 35.168651 
" style="fill:none;stroke:#d9d9d9;stroke-linecap:square;stroke-width:0.5;"/>
     </g>
     <g id="line2d_22">
      <g>
       <use style="stroke:#000000;stroke-width:0.8;" x="35.55" xlink:href="#m9f5f6eb36e" y="35.168651"/>
      </g>
     </g>
     <g id="text_12">
      <!-- 12.5 -->
      <g transform="translate(-2.621875 40.487557)scale(0.14 -0.14)">
       <use xlink:href="#DejaVuSans-49"/>
       <use x="63.623047" xlink:href="#DejaVuSans-50"/>
       <use x="127.246094" xlink:href="#DejaVuSans-46"/>
       <use x="159.033203" xlink:href="#DejaVuSans-53"/>
      </g>
     </g>
    </g>
   </g>
   <g id="patch_5">
    <path d="M 35.55 166.2 
L 35.55 29.8 
" style="fill:none;stroke:#000000;stroke-linecap:square;stroke-linejoin:miter;stroke-width:0.8;"/>
   </g>
   <g id="patch_6">
    <path d="M 256.190625 166.2 
L 256.190625 29.8 
" style="fill:none;stroke:#000000;stroke-linecap:square;stroke-linejoin:miter;stroke-width:0.8;"/>
   </g>
   <g id="patch_7">
    <path d="M 35.55 166.2 
L 256.190625 166.2 
" style="fill:none;stroke:#000000;stroke-linecap:square;stroke-linejoin:miter;stroke-width:0.8;"/>
   </g>
   <g id="patch_8">
    <path d="M 35.55 29.8 
L 256.190625 29.8 
" style="fill:none;stroke:#000000;stroke-linecap:square;stroke-linejoin:miter;stroke-width:0.8;"/>
   </g>
   <g id="text_13">
    <!-- $p_x$ -->
    <defs>
     <path d="M 49.609375 33.6875 
Q 49.609375 40.875 46.484375 44.671875 
Q 43.359375 48.484375 37.5 48.484375 
Q 33.5 48.484375 29.859375 46.4375 
Q 26.21875 44.390625 23.390625 40.484375 
Q 20.609375 36.625 18.9375 31.15625 
Q 17.28125 25.6875 17.28125 20.3125 
Q 17.28125 13.484375 20.40625 9.796875 
Q 23.53125 6.109375 29.296875 6.109375 
Q 33.546875 6.109375 37.1875 8.109375 
Q 40.828125 10.109375 43.40625 13.921875 
Q 46.1875 17.921875 47.890625 23.34375 
Q 49.609375 28.765625 49.609375 33.6875 
z
M 21.78125 46.390625 
Q 25.390625 51.125 30.296875 53.5625 
Q 35.203125 56 41.21875 56 
Q 49.609375 56 54.25 50.5 
Q 58.890625 45.015625 58.890625 35.109375 
Q 58.890625 27 56 19.65625 
Q 53.125 12.3125 47.703125 6.5 
Q 44.09375 2.640625 39.546875 0.609375 
Q 35.015625 -1.421875 29.984375 -1.421875 
Q 24.171875 -1.421875 20.21875 1 
Q 16.265625 3.421875 14.3125 8.203125 
L 8.6875 -20.796875 
L -0.296875 -20.796875 
L 14.40625 54.6875 
L 23.390625 54.6875 
z
" id="DejaVuSans-Oblique-112"/>
     <path d="M 60.015625 54.6875 
L 34.90625 27.875 
L 50.296875 0 
L 39.984375 0 
L 28.421875 21.6875 
L 8.296875 0 
L -2.59375 0 
L 24.3125 28.8125 
L 10.015625 54.6875 
L 20.3125 54.6875 
L 30.8125 34.90625 
L 49.125 54.6875 
z
" id="DejaVuSans-Oblique-120"/>
    </defs>
    <g transform="translate(137.230313 23.8)scale(0.16 -0.16)">
     <use xlink:href="#DejaVuSans-Oblique-112"/>
     <use transform="translate(63.476562 -16.40625)scale(0.7)" xlink:href="#DejaVuSans-Oblique-120"/>
    </g>
   </g>
   <g id="legend_1">
    <g id="patch_9">
     <path d="M 128.930625 55.14 
L 156.930625 55.14 
L 156.930625 45.34 
L 128.930625 45.34 
z
" style="fill:none;stroke:#1f77b4;stroke-linejoin:miter;stroke-width:2;"/>
    </g>
    <g id="text_14">
     <!-- $\sigma^2 = 1\deg^2$ -->
     <defs>
      <path d="M 34.671875 47.5625 
Q 27.25 47.5625 22.21875 42.1875 
Q 16.890625 36.578125 15.140625 27.296875 
Q 13.1875 17.484375 16.3125 11.8125 
Q 19.390625 6.203125 26.65625 6.203125 
Q 33.84375 6.203125 39.109375 11.859375 
Q 44.4375 17.53125 46.34375 27.296875 
Q 48.046875 36.234375 45.015625 42.1875 
Q 42.1875 47.5625 34.671875 47.5625 
z
M 36.078125 54.734375 
L 65.921875 54.6875 
L 64.15625 45.703125 
L 54.109375 45.703125 
Q 57.90625 38.09375 55.859375 27.296875 
Q 53.21875 13.875 45.0625 6.25 
Q 36.859375 -1.421875 25.140625 -1.421875 
Q 13.375 -1.421875 8.203125 6.25 
Q 3.03125 13.875 5.671875 27.296875 
Q 8.25 40.765625 16.40625 48.390625 
Q 23.1875 54.734375 36.078125 54.734375 
z
" id="DejaVuSans-Oblique-963"/>
      <path d="M 10.59375 45.40625 
L 73.1875 45.40625 
L 73.1875 37.203125 
L 10.59375 37.203125 
z
M 10.59375 25.484375 
L 73.1875 25.484375 
L 73.1875 17.1875 
L 10.59375 17.1875 
z
" id="DejaVuSans-61"/>
      <path d="M 45.40625 46.390625 
L 45.40625 75.984375 
L 54.390625 75.984375 
L 54.390625 0 
L 45.40625 0 
L 45.40625 8.203125 
Q 42.578125 3.328125 38.25 0.953125 
Q 33.9375 -1.421875 27.875 -1.421875 
Q 17.96875 -1.421875 11.734375 6.484375 
Q 5.515625 14.40625 5.515625 27.296875 
Q 5.515625 40.1875 11.734375 48.09375 
Q 17.96875 56 27.875 56 
Q 33.9375 56 38.25 53.625 
Q 42.578125 51.265625 45.40625 46.390625 
z
M 14.796875 27.296875 
Q 14.796875 17.390625 18.875 11.75 
Q 22.953125 6.109375 30.078125 6.109375 
Q 37.203125 6.109375 41.296875 11.75 
Q 45.40625 17.390625 45.40625 27.296875 
Q 45.40625 37.203125 41.296875 42.84375 
Q 37.203125 48.484375 30.078125 48.484375 
Q 22.953125 48.484375 18.875 42.84375 
Q 14.796875 37.203125 14.796875 27.296875 
z
" id="DejaVuSans-100"/>
      <path d="M 56.203125 29.59375 
L 56.203125 25.203125 
L 14.890625 25.203125 
Q 15.484375 15.921875 20.484375 11.0625 
Q 25.484375 6.203125 34.421875 6.203125 
Q 39.59375 6.203125 44.453125 7.46875 
Q 49.3125 8.734375 54.109375 11.28125 
L 54.109375 2.78125 
Q 49.265625 0.734375 44.1875 -0.34375 
Q 39.109375 -1.421875 33.890625 -1.421875 
Q 20.796875 -1.421875 13.15625 6.1875 
Q 5.515625 13.8125 5.515625 26.8125 
Q 5.515625 40.234375 12.765625 48.109375 
Q 20.015625 56 32.328125 56 
Q 43.359375 56 49.78125 48.890625 
Q 56.203125 41.796875 56.203125 29.59375 
z
M 47.21875 32.234375 
Q 47.125 39.59375 43.09375 43.984375 
Q 39.0625 48.390625 32.421875 48.390625 
Q 24.90625 48.390625 20.390625 44.140625 
Q 15.875 39.890625 15.1875 32.171875 
z
" id="DejaVuSans-101"/>
      <path d="M 45.40625 27.984375 
Q 45.40625 37.75 41.375 43.109375 
Q 37.359375 48.484375 30.078125 48.484375 
Q 22.859375 48.484375 18.828125 43.109375 
Q 14.796875 37.75 14.796875 27.984375 
Q 14.796875 18.265625 18.828125 12.890625 
Q 22.859375 7.515625 30.078125 7.515625 
Q 37.359375 7.515625 41.375 12.890625 
Q 45.40625 18.265625 45.40625 27.984375 
z
M 54.390625 6.78125 
Q 54.390625 -7.171875 48.1875 -13.984375 
Q 42 -20.796875 29.203125 -20.796875 
Q 24.46875 -20.796875 20.265625 -20.09375 
Q 16.0625 -19.390625 12.109375 -17.921875 
L 12.109375 -9.1875 
Q 16.0625 -11.328125 19.921875 -12.34375 
Q 23.78125 -13.375 27.78125 -13.375 
Q 36.625 -13.375 41.015625 -8.765625 
Q 45.40625 -4.15625 45.40625 5.171875 
L 45.40625 9.625 
Q 42.625 4.78125 38.28125 2.390625 
Q 33.9375 0 27.875 0 
Q 17.828125 0 11.671875 7.65625 
Q 5.515625 15.328125 5.515625 27.984375 
Q 5.515625 40.671875 11.671875 48.328125 
Q 17.828125 56 27.875 56 
Q 33.9375 56 38.28125 53.609375 
Q 42.625 51.21875 45.40625 46.390625 
L 45.40625 54.6875 
L 54.390625 54.6875 
z
" id="DejaVuSans-103"/>
     </defs>
     <g transform="translate(168.130625 55.14)scale(0.14 -0.14)">
      <use transform="translate(0 0.765625)" xlink:href="#DejaVuSans-Oblique-963"/>
      <use transform="translate(67.851615 39.046875)scale(0.7)" xlink:href="#DejaVuSans-50"/>
      <use transform="translate(134.604544 0.765625)" xlink:href="#DejaVuSans-61"/>
      <use transform="translate(237.876029 0.765625)" xlink:href="#DejaVuSans-49"/>
      <use transform="translate(301.499076 0.765625)" xlink:href="#DejaVuSans-100"/>
      <use transform="translate(364.975638 0.765625)" xlink:href="#DejaVuSans-101"/>
      <use transform="translate(426.499076 0.765625)" xlink:href="#DejaVuSans-103"/>
      <use transform="translate(490.932669 39.046875)scale(0.7)" xlink:href="#DejaVuSans-50"/>
     </g>
    </g>
    <g id="patch_10">
     <path d="M 128.930625 77.82 
L 156.930625 77.82 
L 156.930625 68.02 
L 128.930625 68.02 
z
" style="fill:none;stroke:#d62728;stroke-linejoin:miter;stroke-width:2;"/>
    </g>
    <g id="text_15">
     <!-- $\sigma^2 = 5\deg^2$ -->
     <g transform="translate(168.130625 77.82)scale(0.14 -0.14)">
      <use transform="translate(0 0.765625)" xlink:href="#DejaVuSans-Oblique-963"/>
      <use transform="translate(67.851615 39.046875)scale(0.7)" xlink:href="#DejaVuSans-50"/>
      <use transform="translate(134.604544 0.765625)" xlink:href="#DejaVuSans-61"/>
      <use transform="translate(237.876029 0.765625)" xlink:href="#DejaVuSans-53"/>
      <use transform="translate(301.499076 0.765625)" xlink:href="#DejaVuSans-100"/>
      <use transform="translate(364.975638 0.765625)" xlink:href="#DejaVuSans-101"/>
      <use transform="translate(426.499076 0.765625)" xlink:href="#DejaVuSans-103"/>
      <use transform="translate(490.932669 39.046875)scale(0.7)" xlink:href="#DejaVuSans-50"/>
     </g>
    </g>
   </g>
  </g>
  <g id="axes_2">
   <g id="patch_11">
    <path d="M 302.865625 166.2 
L 523.50625 166.2 
L 523.50625 29.8 
L 302.865625 29.8 
z
" style="fill:#ffffff;"/>
   </g>
   <g id="patch_12">
    <path clip-path="url(#p5e4cc73266)" d="M 347.084448 166.2 
L 347.084448 164.087727 
L 348.122594 164.087727 
L 348.122594 165.143864 
L 349.16074 165.143864 
L 349.16074 164.087727 
L 350.198885 164.087727 
L 350.198885 164.087727 
L 351.237031 164.087727 
L 351.237031 159.863182 
L 352.275177 159.863182 
L 352.275177 154.582501 
L 353.313323 154.582501 
L 353.313323 150.357956 
L 354.351469 150.357956 
L 354.351469 133.459775 
L 355.389615 133.459775 
L 355.389615 114.449322 
L 356.427761 114.449322 
L 356.427761 101.775687 
L 357.465906 101.775687 
L 357.465906 80.652962 
L 358.504052 80.652962 
L 358.504052 55.305691 
L 359.542198 55.305691 
L 359.542198 59.530236 
L 360.580344 59.530236 
L 360.580344 36.295238 
L 361.61849 36.295238 
L 361.61849 54.249555 
L 362.656636 54.249555 
L 362.656636 81.709098 
L 363.694782 81.709098 
L 363.694782 85.933643 
L 364.732928 85.933643 
L 364.732928 120.78614 
L 365.771073 120.78614 
L 365.771073 118.673868 
L 366.809219 118.673868 
L 366.809219 138.740457 
L 367.847365 138.740457 
L 367.847365 149.30182 
L 368.885511 149.30182 
L 368.885511 159.863182 
L 369.923657 159.863182 
L 369.923657 163.031591 
L 370.961803 163.031591 
L 370.961803 161.975455 
L 371.999949 161.975455 
L 371.999949 160.919319 
L 373.038095 160.919319 
L 373.038095 166.2 
" style="fill:none;stroke:#1f77b4;stroke-linejoin:miter;stroke-width:2;"/>
   </g>
   <g id="patch_13">
    <path clip-path="url(#p5e4cc73266)" d="M 346.203847 166.2 
L 346.203847 166.066318 
L 354.405577 166.066318 
L 354.405577 166.066318 
L 362.607307 166.066318 
L 362.607307 164.996862 
L 370.809037 164.996862 
L 370.809037 164.729498 
L 379.010767 164.729498 
L 379.010767 161.788495 
L 387.212497 161.788495 
L 387.212497 158.713809 
L 395.414227 158.713809 
L 395.414227 150.69289 
L 403.615957 150.69289 
L 403.615957 148.019251 
L 411.817687 148.019251 
L 411.817687 146.682431 
L 420.019417 146.682431 
L 420.019417 144.008791 
L 428.221147 144.008791 
L 428.221147 149.890798 
L 436.422877 149.890798 
L 436.422877 155.104396 
L 444.624607 155.104396 
L 444.624607 158.580127 
L 452.826337 158.580127 
L 452.826337 162.189541 
L 461.028067 162.189541 
L 461.028067 164.462134 
L 469.229797 164.462134 
L 469.229797 165.130544 
L 477.431527 165.130544 
L 477.431527 165.53159 
L 485.633257 165.53159 
L 485.633257 165.932636 
L 493.834987 165.932636 
L 493.834987 166.2 
L 502.036717 166.2 
L 502.036717 166.2 
L 510.238447 166.2 
L 510.238447 166.066318 
L 518.440177 166.066318 
L 518.440177 165.932636 
L 526.641907 165.932636 
L 526.641907 166.2 
L 534.843637 166.2 
L 534.843637 166.066318 
L 543.045367 166.066318 
L 543.045367 166.066318 
L 551.247097 166.066318 
L 551.247097 166.2 
" style="fill:none;stroke:#d62728;stroke-linejoin:miter;stroke-width:2;"/>
   </g>
   <g id="matplotlib.axis_3">
    <g id="xtick_6">
     <g id="line2d_23">
      <path clip-path="url(#p5e4cc73266)" d="M 302.865625 166.2 
L 302.865625 29.8 
" style="fill:none;stroke:#d9d9d9;stroke-linecap:square;stroke-width:0.5;"/>
     </g>
     <g id="line2d_24">
      <g>
       <use style="stroke:#000000;stroke-width:0.8;" x="302.865625" xlink:href="#m29ad682e8e" y="166.2"/>
      </g>
     </g>
     <g id="text_16">
      <!-- −0.5 -->
      <g transform="translate(285.867656 183.837813)scale(0.14 -0.14)">
       <use xlink:href="#DejaVuSans-8722"/>
       <use x="83.789062" xlink:href="#DejaVuSans-48"/>
       <use x="147.412109" xlink:href="#DejaVuSans-46"/>
       <use x="179.199219" xlink:href="#DejaVuSans-53"/>
      </g>
     </g>
    </g>
    <g id="xtick_7">
     <g id="line2d_25">
      <path clip-path="url(#p5e4cc73266)" d="M 358.025781 166.2 
L 358.025781 29.8 
" style="fill:none;stroke:#d9d9d9;stroke-linecap:square;stroke-width:0.5;"/>
     </g>
     <g id="line2d_26">
      <g>
       <use style="stroke:#000000;stroke-width:0.8;" x="358.025781" xlink:href="#m29ad682e8e" y="166.2"/>
      </g>
     </g>
     <g id="text_17">
      <!-- 0.0 -->
      <g transform="translate(346.893594 183.837813)scale(0.14 -0.14)">
       <use xlink:href="#DejaVuSans-48"/>
       <use x="63.623047" xlink:href="#DejaVuSans-46"/>
       <use x="95.410156" xlink:href="#DejaVuSans-48"/>
      </g>
     </g>
    </g>
    <g id="xtick_8">
     <g id="line2d_27">
      <path clip-path="url(#p5e4cc73266)" d="M 413.185937 166.2 
L 413.185937 29.8 
" style="fill:none;stroke:#d9d9d9;stroke-linecap:square;stroke-width:0.5;"/>
     </g>
     <g id="line2d_28">
      <g>
       <use style="stroke:#000000;stroke-width:0.8;" x="413.185937" xlink:href="#m29ad682e8e" y="166.2"/>
      </g>
     </g>
     <g id="text_18">
      <!-- 0.5 -->
      <g transform="translate(402.05375 183.837813)scale(0.14 -0.14)">
       <use xlink:href="#DejaVuSans-48"/>
       <use x="63.623047" xlink:href="#DejaVuSans-46"/>
       <use x="95.410156" xlink:href="#DejaVuSans-53"/>
      </g>
     </g>
    </g>
    <g id="xtick_9">
     <g id="line2d_29">
      <path clip-path="url(#p5e4cc73266)" d="M 468.346094 166.2 
L 468.346094 29.8 
" style="fill:none;stroke:#d9d9d9;stroke-linecap:square;stroke-width:0.5;"/>
     </g>
     <g id="line2d_30">
      <g>
       <use style="stroke:#000000;stroke-width:0.8;" x="468.346094" xlink:href="#m29ad682e8e" y="166.2"/>
      </g>
     </g>
     <g id="text_19">
      <!-- 1.0 -->
      <g transform="translate(457.213906 183.837813)scale(0.14 -0.14)">
       <use xlink:href="#DejaVuSans-49"/>
       <use x="63.623047" xlink:href="#DejaVuSans-46"/>
       <use x="95.410156" xlink:href="#DejaVuSans-48"/>
      </g>
     </g>
    </g>
    <g id="xtick_10">
     <g id="line2d_31">
      <path clip-path="url(#p5e4cc73266)" d="M 523.50625 166.2 
L 523.50625 29.8 
" style="fill:none;stroke:#d9d9d9;stroke-linecap:square;stroke-width:0.5;"/>
     </g>
     <g id="line2d_32">
      <g>
       <use style="stroke:#000000;stroke-width:0.8;" x="523.50625" xlink:href="#m29ad682e8e" y="166.2"/>
      </g>
     </g>
     <g id="text_20">
      <!-- 1.5 -->
      <g transform="translate(512.374063 183.837813)scale(0.14 -0.14)">
       <use xlink:href="#DejaVuSans-49"/>
       <use x="63.623047" xlink:href="#DejaVuSans-46"/>
       <use x="95.410156" xlink:href="#DejaVuSans-53"/>
      </g>
     </g>
    </g>
    <g id="text_21">
     <!-- Error (cm) -->
     <g transform="translate(377.495781 201.387188)scale(0.14 -0.14)">
      <use xlink:href="#DejaVuSans-69"/>
      <use x="63.183594" xlink:href="#DejaVuSans-114"/>
      <use x="104.28125" xlink:href="#DejaVuSans-114"/>
      <use x="145.363281" xlink:href="#DejaVuSans-111"/>
      <use x="206.544922" xlink:href="#DejaVuSans-114"/>
      <use x="247.658203" xlink:href="#DejaVuSans-32"/>
      <use x="279.445312" xlink:href="#DejaVuSans-40"/>
      <use x="318.458984" xlink:href="#DejaVuSans-99"/>
      <use x="373.439453" xlink:href="#DejaVuSans-109"/>
      <use x="470.851562" xlink:href="#DejaVuSans-41"/>
     </g>
    </g>
   </g>
   <g id="matplotlib.axis_4">
    <g id="ytick_7">
     <g id="line2d_33">
      <path clip-path="url(#p5e4cc73266)" d="M 302.865625 166.2 
L 523.50625 166.2 
" style="fill:none;stroke:#d9d9d9;stroke-linecap:square;stroke-width:0.5;"/>
     </g>
     <g id="line2d_34">
      <g>
       <use style="stroke:#000000;stroke-width:0.8;" x="302.865625" xlink:href="#m9f5f6eb36e" y="166.2"/>
      </g>
     </g>
     <g id="text_22">
      <!-- 0.0 -->
      <g transform="translate(273.60125 171.518906)scale(0.14 -0.14)">
       <use xlink:href="#DejaVuSans-48"/>
       <use x="63.623047" xlink:href="#DejaVuSans-46"/>
       <use x="95.410156" xlink:href="#DejaVuSans-48"/>
      </g>
     </g>
    </g>
    <g id="ytick_8">
     <g id="line2d_35">
      <path clip-path="url(#p5e4cc73266)" d="M 302.865625 141.353635 
L 523.50625 141.353635 
" style="fill:none;stroke:#d9d9d9;stroke-linecap:square;stroke-width:0.5;"/>
     </g>
     <g id="line2d_36">
      <g>
       <use style="stroke:#000000;stroke-width:0.8;" x="302.865625" xlink:href="#m9f5f6eb36e" y="141.353635"/>
      </g>
     </g>
     <g id="text_23">
      <!-- 2.5 -->
      <g transform="translate(273.60125 146.672541)scale(0.14 -0.14)">
       <use xlink:href="#DejaVuSans-50"/>
       <use x="63.623047" xlink:href="#DejaVuSans-46"/>
       <use x="95.410156" xlink:href="#DejaVuSans-53"/>
      </g>
     </g>
    </g>
    <g id="ytick_9">
     <g id="line2d_37">
      <path clip-path="url(#p5e4cc73266)" d="M 302.865625 116.507269 
L 523.50625 116.507269 
" style="fill:none;stroke:#d9d9d9;stroke-linecap:square;stroke-width:0.5;"/>
     </g>
     <g id="line2d_38">
      <g>
       <use style="stroke:#000000;stroke-width:0.8;" x="302.865625" xlink:href="#m9f5f6eb36e" y="116.507269"/>
      </g>
     </g>
     <g id="text_24">
      <!-- 5.0 -->
      <g transform="translate(273.60125 121.826175)scale(0.14 -0.14)">
       <use xlink:href="#DejaVuSans-53"/>
       <use x="63.623047" xlink:href="#DejaVuSans-46"/>
       <use x="95.410156" xlink:href="#DejaVuSans-48"/>
      </g>
     </g>
    </g>
    <g id="ytick_10">
     <g id="line2d_39">
      <path clip-path="url(#p5e4cc73266)" d="M 302.865625 91.660904 
L 523.50625 91.660904 
" style="fill:none;stroke:#d9d9d9;stroke-linecap:square;stroke-width:0.5;"/>
     </g>
     <g id="line2d_40">
      <g>
       <use style="stroke:#000000;stroke-width:0.8;" x="302.865625" xlink:href="#m9f5f6eb36e" y="91.660904"/>
      </g>
     </g>
     <g id="text_25">
      <!-- 7.5 -->
      <g transform="translate(273.60125 96.97981)scale(0.14 -0.14)">
       <use xlink:href="#DejaVuSans-55"/>
       <use x="63.623047" xlink:href="#DejaVuSans-46"/>
       <use x="95.410156" xlink:href="#DejaVuSans-53"/>
      </g>
     </g>
    </g>
    <g id="ytick_11">
     <g id="line2d_41">
      <path clip-path="url(#p5e4cc73266)" d="M 302.865625 66.814538 
L 523.50625 66.814538 
" style="fill:none;stroke:#d9d9d9;stroke-linecap:square;stroke-width:0.5;"/>
     </g>
     <g id="line2d_42">
      <g>
       <use style="stroke:#000000;stroke-width:0.8;" x="302.865625" xlink:href="#m9f5f6eb36e" y="66.814538"/>
      </g>
     </g>
     <g id="text_26">
      <!-- 10.0 -->
      <g transform="translate(264.69375 72.133445)scale(0.14 -0.14)">
       <use xlink:href="#DejaVuSans-49"/>
       <use x="63.623047" xlink:href="#DejaVuSans-48"/>
       <use x="127.246094" xlink:href="#DejaVuSans-46"/>
       <use x="159.033203" xlink:href="#DejaVuSans-48"/>
      </g>
     </g>
    </g>
    <g id="ytick_12">
     <g id="line2d_43">
      <path clip-path="url(#p5e4cc73266)" d="M 302.865625 41.968173 
L 523.50625 41.968173 
" style="fill:none;stroke:#d9d9d9;stroke-linecap:square;stroke-width:0.5;"/>
     </g>
     <g id="line2d_44">
      <g>
       <use style="stroke:#000000;stroke-width:0.8;" x="302.865625" xlink:href="#m9f5f6eb36e" y="41.968173"/>
      </g>
     </g>
     <g id="text_27">
      <!-- 12.5 -->
      <g transform="translate(264.69375 47.287079)scale(0.14 -0.14)">
       <use xlink:href="#DejaVuSans-49"/>
       <use x="63.623047" xlink:href="#DejaVuSans-50"/>
       <use x="127.246094" xlink:href="#DejaVuSans-46"/>
       <use x="159.033203" xlink:href="#DejaVuSans-53"/>
      </g>
     </g>
    </g>
   </g>
   <g id="patch_14">
    <path d="M 302.865625 166.2 
L 302.865625 29.8 
" style="fill:none;stroke:#000000;stroke-linecap:square;stroke-linejoin:miter;stroke-width:0.8;"/>
   </g>
   <g id="patch_15">
    <path d="M 523.50625 166.2 
L 523.50625 29.8 
" style="fill:none;stroke:#000000;stroke-linecap:square;stroke-linejoin:miter;stroke-width:0.8;"/>
   </g>
   <g id="patch_16">
    <path d="M 302.865625 166.2 
L 523.50625 166.2 
" style="fill:none;stroke:#000000;stroke-linecap:square;stroke-linejoin:miter;stroke-width:0.8;"/>
   </g>
   <g id="patch_17">
    <path d="M 302.865625 29.8 
L 523.50625 29.8 
" style="fill:none;stroke:#000000;stroke-linecap:square;stroke-linejoin:miter;stroke-width:0.8;"/>
   </g>
   <g id="text_28">
    <!-- $p_y$ -->
    <defs>
     <path d="M 24.8125 -5.078125 
Q 18.5625 -15.578125 14.625 -18.1875 
Q 10.6875 -20.796875 4.59375 -20.796875 
L -2.484375 -20.796875 
L -0.984375 -13.28125 
L 4.203125 -13.28125 
Q 7.953125 -13.28125 10.59375 -11.234375 
Q 13.234375 -9.1875 16.5 -3.21875 
L 19.28125 2 
L 7.171875 54.6875 
L 16.703125 54.6875 
L 25.78125 12.796875 
L 50.875 54.6875 
L 60.296875 54.6875 
z
" id="DejaVuSans-Oblique-121"/>
    </defs>
    <g transform="translate(404.545938 23.8)scale(0.16 -0.16)">
     <use xlink:href="#DejaVuSans-Oblique-112"/>
     <use transform="translate(63.476562 -16.40625)scale(0.7)" xlink:href="#DejaVuSans-Oblique-121"/>
    </g>
   </g>
   <g id="legend_2">
    <g id="patch_18">
     <path d="M 396.24625 55.14 
L 424.24625 55.14 
L 424.24625 45.34 
L 396.24625 45.34 
z
" style="fill:none;stroke:#1f77b4;stroke-linejoin:miter;stroke-width:2;"/>
    </g>
    <g id="text_29">
     <!-- $\sigma^2 = 1\deg^2$ -->
     <g transform="translate(435.44625 55.14)scale(0.14 -0.14)">
      <use transform="translate(0 0.765625)" xlink:href="#DejaVuSans-Oblique-963"/>
      <use transform="translate(67.851615 39.046875)scale(0.7)" xlink:href="#DejaVuSans-50"/>
      <use transform="translate(134.604544 0.765625)" xlink:href="#DejaVuSans-61"/>
      <use transform="translate(237.876029 0.765625)" xlink:href="#DejaVuSans-49"/>
      <use transform="translate(301.499076 0.765625)" xlink:href="#DejaVuSans-100"/>
      <use transform="translate(364.975638 0.765625)" xlink:href="#DejaVuSans-101"/>
      <use transform="translate(426.499076 0.765625)" xlink:href="#DejaVuSans-103"/>
      <use transform="translate(490.932669 39.046875)scale(0.7)" xlink:href="#DejaVuSans-50"/>
     </g>
    </g>
    <g id="patch_19">
     <path d="M 396.24625 77.82 
L 424.24625 77.82 
L 424.24625 68.02 
L 396.24625 68.02 
z
" style="fill:none;stroke:#d62728;stroke-linejoin:miter;stroke-width:2;"/>
    </g>
    <g id="text_30">
     <!-- $\sigma^2 = 5\deg^2$ -->
     <g transform="translate(435.44625 77.82)scale(0.14 -0.14)">
      <use transform="translate(0 0.765625)" xlink:href="#DejaVuSans-Oblique-963"/>
      <use transform="translate(67.851615 39.046875)scale(0.7)" xlink:href="#DejaVuSans-50"/>
      <use transform="translate(134.604544 0.765625)" xlink:href="#DejaVuSans-61"/>
      <use transform="translate(237.876029 0.765625)" xlink:href="#DejaVuSans-53"/>
      <use transform="translate(301.499076 0.765625)" xlink:href="#DejaVuSans-100"/>
      <use transform="translate(364.975638 0.765625)" xlink:href="#DejaVuSans-101"/>
      <use transform="translate(426.499076 0.765625)" xlink:href="#DejaVuSans-103"/>
      <use transform="translate(490.932669 39.046875)scale(0.7)" xlink:href="#DejaVuSans-50"/>
     </g>
    </g>
   </g>
  </g>
  <g id="axes_3">
   <g id="patch_20">
    <path d="M 570.18125 166.2 
L 790.821875 166.2 
L 790.821875 29.8 
L 570.18125 29.8 
z
" style="fill:#ffffff;"/>
   </g>
   <g id="patch_21">
    <path clip-path="url(#p100350bdce)" d="M 705.051638 166.2 
L 705.051638 165.040136 
L 705.915317 165.040136 
L 705.915317 165.040136 
L 706.778996 165.040136 
L 706.778996 165.040136 
L 707.642675 165.040136 
L 707.642675 163.880272 
L 708.506354 163.880272 
L 708.506354 155.761224 
L 709.370034 155.761224 
L 709.370034 149.961905 
L 710.233713 149.961905 
L 710.233713 130.244218 
L 711.097392 130.244218 
L 711.097392 116.32585 
L 711.961071 116.32585 
L 711.961071 94.288435 
L 712.82475 94.288435 
L 712.82475 74.570748 
L 713.688429 74.570748 
L 713.688429 82.689796 
L 714.552109 82.689796 
L 714.552109 53.693197 
L 715.415788 53.693197 
L 715.415788 61.812245 
L 716.279467 61.812245 
L 716.279467 36.295238 
L 717.143146 36.295238 
L 717.143146 37.455102 
L 718.006825 37.455102 
L 718.006825 71.091156 
L 718.870504 71.091156 
L 718.870504 79.210204 
L 719.734183 79.210204 
L 719.734183 108.206803 
L 720.597863 108.206803 
L 720.597863 127.92449 
L 721.461542 127.92449 
L 721.461542 147.642177 
L 722.325221 147.642177 
L 722.325221 159.240816 
L 723.1889 159.240816 
L 723.1889 159.240816 
L 724.052579 159.240816 
L 724.052579 161.560544 
L 724.916258 161.560544 
L 724.916258 163.880272 
L 725.779937 163.880272 
L 725.779937 165.040136 
L 726.643617 165.040136 
L 726.643617 166.2 
" style="fill:none;stroke:#1f77b4;stroke-linejoin:miter;stroke-width:2;"/>
   </g>
   <g id="patch_22">
    <path clip-path="url(#p100350bdce)" d="M 626.542908 166.2 
L 626.542908 165.828795 
L 631.940195 165.828795 
L 631.940195 165.643192 
L 637.337482 165.643192 
L 637.337482 164.71518 
L 642.734769 164.71518 
L 642.734769 164.343974 
L 648.132056 164.343974 
L 648.132056 163.415962 
L 653.529344 163.415962 
L 653.529344 161.003128 
L 658.926631 161.003128 
L 658.926631 158.21909 
L 664.323918 158.21909 
L 664.323918 149.681372 
L 669.721205 149.681372 
L 669.721205 147.454142 
L 675.118492 147.454142 
L 675.118492 146.711731 
L 680.515779 146.711731 
L 680.515779 146.154924 
L 685.913066 146.154924 
L 685.913066 143.370885 
L 691.310353 143.370885 
L 691.310353 146.526129 
L 696.707641 146.526129 
L 696.707641 150.794988 
L 702.104928 150.794988 
L 702.104928 152.279808 
L 707.502215 152.279808 
L 707.502215 159.889513 
L 712.899502 159.889513 
L 712.899502 160.446321 
L 718.296789 160.446321 
L 718.296789 163.787167 
L 723.694076 163.787167 
L 723.694076 164.900782 
L 729.091363 164.900782 
L 729.091363 165.45759 
L 734.48865 165.45759 
L 734.48865 165.643192 
L 739.885937 165.643192 
L 739.885937 165.086385 
L 745.283225 165.086385 
L 745.283225 166.014397 
L 750.680512 166.014397 
L 750.680512 166.014397 
L 756.077799 166.014397 
L 756.077799 166.014397 
L 761.475086 166.014397 
L 761.475086 166.2 
" style="fill:none;stroke:#d62728;stroke-linejoin:miter;stroke-width:2;"/>
   </g>
   <g id="matplotlib.axis_5">
    <g id="xtick_11">
     <g id="line2d_45">
      <path clip-path="url(#p100350bdce)" d="M 570.18125 166.2 
L 570.18125 29.8 
" style="fill:none;stroke:#d9d9d9;stroke-linecap:square;stroke-width:0.5;"/>
     </g>
     <g id="line2d_46">
      <g>
       <use style="stroke:#000000;stroke-width:0.8;" x="570.18125" xlink:href="#m29ad682e8e" y="166.2"/>
      </g>
     </g>
     <g id="text_31">
      <!-- −1.0 -->
      <g transform="translate(553.183281 183.837813)scale(0.14 -0.14)">
       <use xlink:href="#DejaVuSans-8722"/>
       <use x="83.789062" xlink:href="#DejaVuSans-49"/>
       <use x="147.412109" xlink:href="#DejaVuSans-46"/>
       <use x="179.199219" xlink:href="#DejaVuSans-48"/>
      </g>
     </g>
    </g>
    <g id="xtick_12">
     <g id="line2d_47">
      <path clip-path="url(#p100350bdce)" d="M 643.728125 166.2 
L 643.728125 29.8 
" style="fill:none;stroke:#d9d9d9;stroke-linecap:square;stroke-width:0.5;"/>
     </g>
     <g id="line2d_48">
      <g>
       <use style="stroke:#000000;stroke-width:0.8;" x="643.728125" xlink:href="#m29ad682e8e" y="166.2"/>
      </g>
     </g>
     <g id="text_32">
      <!-- −0.5 -->
      <g transform="translate(626.730156 183.837813)scale(0.14 -0.14)">
       <use xlink:href="#DejaVuSans-8722"/>
       <use x="83.789062" xlink:href="#DejaVuSans-48"/>
       <use x="147.412109" xlink:href="#DejaVuSans-46"/>
       <use x="179.199219" xlink:href="#DejaVuSans-53"/>
      </g>
     </g>
    </g>
    <g id="xtick_13">
     <g id="line2d_49">
      <path clip-path="url(#p100350bdce)" d="M 717.275 166.2 
L 717.275 29.8 
" style="fill:none;stroke:#d9d9d9;stroke-linecap:square;stroke-width:0.5;"/>
     </g>
     <g id="line2d_50">
      <g>
       <use style="stroke:#000000;stroke-width:0.8;" x="717.275" xlink:href="#m29ad682e8e" y="166.2"/>
      </g>
     </g>
     <g id="text_33">
      <!-- 0.0 -->
      <g transform="translate(706.142812 183.837813)scale(0.14 -0.14)">
       <use xlink:href="#DejaVuSans-48"/>
       <use x="63.623047" xlink:href="#DejaVuSans-46"/>
       <use x="95.410156" xlink:href="#DejaVuSans-48"/>
      </g>
     </g>
    </g>
    <g id="xtick_14">
     <g id="line2d_51">
      <path clip-path="url(#p100350bdce)" d="M 790.821875 166.2 
L 790.821875 29.8 
" style="fill:none;stroke:#d9d9d9;stroke-linecap:square;stroke-width:0.5;"/>
     </g>
     <g id="line2d_52">
      <g>
       <use style="stroke:#000000;stroke-width:0.8;" x="790.821875" xlink:href="#m29ad682e8e" y="166.2"/>
      </g>
     </g>
     <g id="text_34">
      <!-- 0.5 -->
      <g transform="translate(779.689687 183.837813)scale(0.14 -0.14)">
       <use xlink:href="#DejaVuSans-48"/>
       <use x="63.623047" xlink:href="#DejaVuSans-46"/>
       <use x="95.410156" xlink:href="#DejaVuSans-53"/>
      </g>
     </g>
    </g>
    <g id="text_35">
     <!-- Error (cm) -->
     <g transform="translate(644.811406 201.387188)scale(0.14 -0.14)">
      <use xlink:href="#DejaVuSans-69"/>
      <use x="63.183594" xlink:href="#DejaVuSans-114"/>
      <use x="104.28125" xlink:href="#DejaVuSans-114"/>
      <use x="145.363281" xlink:href="#DejaVuSans-111"/>
      <use x="206.544922" xlink:href="#DejaVuSans-114"/>
      <use x="247.658203" xlink:href="#DejaVuSans-32"/>
      <use x="279.445312" xlink:href="#DejaVuSans-40"/>
      <use x="318.458984" xlink:href="#DejaVuSans-99"/>
      <use x="373.439453" xlink:href="#DejaVuSans-109"/>
      <use x="470.851562" xlink:href="#DejaVuSans-41"/>
     </g>
    </g>
   </g>
   <g id="matplotlib.axis_6">
    <g id="ytick_13">
     <g id="line2d_53">
      <path clip-path="url(#p100350bdce)" d="M 570.18125 166.2 
L 790.821875 166.2 
" style="fill:none;stroke:#d9d9d9;stroke-linecap:square;stroke-width:0.5;"/>
     </g>
     <g id="line2d_54">
      <g>
       <use style="stroke:#000000;stroke-width:0.8;" x="570.18125" xlink:href="#m9f5f6eb36e" y="166.2"/>
      </g>
     </g>
     <g id="text_36">
      <!-- 0 -->
      <g transform="translate(554.27375 171.518906)scale(0.14 -0.14)">
       <use xlink:href="#DejaVuSans-48"/>
      </g>
     </g>
    </g>
    <g id="ytick_14">
     <g id="line2d_55">
      <path clip-path="url(#p100350bdce)" d="M 570.18125 132.148577 
L 790.821875 132.148577 
" style="fill:none;stroke:#d9d9d9;stroke-linecap:square;stroke-width:0.5;"/>
     </g>
     <g id="line2d_56">
      <g>
       <use style="stroke:#000000;stroke-width:0.8;" x="570.18125" xlink:href="#m9f5f6eb36e" y="132.148577"/>
      </g>
     </g>
     <g id="text_37">
      <!-- 5 -->
      <g transform="translate(554.27375 137.467483)scale(0.14 -0.14)">
       <use xlink:href="#DejaVuSans-53"/>
      </g>
     </g>
    </g>
    <g id="ytick_15">
     <g id="line2d_57">
      <path clip-path="url(#p100350bdce)" d="M 570.18125 98.097154 
L 790.821875 98.097154 
" style="fill:none;stroke:#d9d9d9;stroke-linecap:square;stroke-width:0.5;"/>
     </g>
     <g id="line2d_58">
      <g>
       <use style="stroke:#000000;stroke-width:0.8;" x="570.18125" xlink:href="#m9f5f6eb36e" y="98.097154"/>
      </g>
     </g>
     <g id="text_38">
      <!-- 10 -->
      <g transform="translate(545.36625 103.41606)scale(0.14 -0.14)">
       <use xlink:href="#DejaVuSans-49"/>
       <use x="63.623047" xlink:href="#DejaVuSans-48"/>
      </g>
     </g>
    </g>
    <g id="ytick_16">
     <g id="line2d_59">
      <path clip-path="url(#p100350bdce)" d="M 570.18125 64.045731 
L 790.821875 64.045731 
" style="fill:none;stroke:#d9d9d9;stroke-linecap:square;stroke-width:0.5;"/>
     </g>
     <g id="line2d_60">
      <g>
       <use style="stroke:#000000;stroke-width:0.8;" x="570.18125" xlink:href="#m9f5f6eb36e" y="64.045731"/>
      </g>
     </g>
     <g id="text_39">
      <!-- 15 -->
      <g transform="translate(545.36625 69.364637)scale(0.14 -0.14)">
       <use xlink:href="#DejaVuSans-49"/>
       <use x="63.623047" xlink:href="#DejaVuSans-53"/>
      </g>
     </g>
    </g>
    <g id="ytick_17">
     <g id="line2d_61">
      <path clip-path="url(#p100350bdce)" d="M 570.18125 29.994308 
L 790.821875 29.994308 
" style="fill:none;stroke:#d9d9d9;stroke-linecap:square;stroke-width:0.5;"/>
     </g>
     <g id="line2d_62">
      <g>
       <use style="stroke:#000000;stroke-width:0.8;" x="570.18125" xlink:href="#m9f5f6eb36e" y="29.994308"/>
      </g>
     </g>
     <g id="text_40">
      <!-- 20 -->
      <g transform="translate(545.36625 35.313214)scale(0.14 -0.14)">
       <use xlink:href="#DejaVuSans-50"/>
       <use x="63.623047" xlink:href="#DejaVuSans-48"/>
      </g>
     </g>
    </g>
   </g>
   <g id="patch_23">
    <path d="M 570.18125 166.2 
L 570.18125 29.8 
" style="fill:none;stroke:#000000;stroke-linecap:square;stroke-linejoin:miter;stroke-width:0.8;"/>
   </g>
   <g id="patch_24">
    <path d="M 790.821875 166.2 
L 790.821875 29.8 
" style="fill:none;stroke:#000000;stroke-linecap:square;stroke-linejoin:miter;stroke-width:0.8;"/>
   </g>
   <g id="patch_25">
    <path d="M 570.18125 166.2 
L 790.821875 166.2 
" style="fill:none;stroke:#000000;stroke-linecap:square;stroke-linejoin:miter;stroke-width:0.8;"/>
   </g>
   <g id="patch_26">
    <path d="M 570.18125 29.8 
L 790.821875 29.8 
" style="fill:none;stroke:#000000;stroke-linecap:square;stroke-linejoin:miter;stroke-width:0.8;"/>
   </g>
   <g id="text_41">
    <!-- $p_z$ -->
    <defs>
     <path d="M 11.625 54.6875 
L 54.296875 54.6875 
L 52.6875 46.484375 
L 11.53125 7.171875 
L 45.515625 7.171875 
L 44.09375 0 
L -0.296875 0 
L 1.3125 8.203125 
L 42.484375 47.515625 
L 10.203125 47.515625 
z
" id="DejaVuSans-Oblique-122"/>
    </defs>
    <g transform="translate(672.261563 23.8)scale(0.16 -0.16)">
     <use xlink:href="#DejaVuSans-Oblique-112"/>
     <use transform="translate(63.476562 -16.40625)scale(0.7)" xlink:href="#DejaVuSans-Oblique-122"/>
    </g>
   </g>
   <g id="legend_3">
    <g id="patch_27">
     <path d="M 582.78125 55.14 
L 610.78125 55.14 
L 610.78125 45.34 
L 582.78125 45.34 
z
" style="fill:none;stroke:#1f77b4;stroke-linejoin:miter;stroke-width:2;"/>
    </g>
    <g id="text_42">
     <!-- $\sigma^2 = 1\deg^2$ -->
     <g transform="translate(621.98125 55.14)scale(0.14 -0.14)">
      <use transform="translate(0 0.765625)" xlink:href="#DejaVuSans-Oblique-963"/>
      <use transform="translate(67.851615 39.046875)scale(0.7)" xlink:href="#DejaVuSans-50"/>
      <use transform="translate(134.604544 0.765625)" xlink:href="#DejaVuSans-61"/>
      <use transform="translate(237.876029 0.765625)" xlink:href="#DejaVuSans-49"/>
      <use transform="translate(301.499076 0.765625)" xlink:href="#DejaVuSans-100"/>
      <use transform="translate(364.975638 0.765625)" xlink:href="#DejaVuSans-101"/>
      <use transform="translate(426.499076 0.765625)" xlink:href="#DejaVuSans-103"/>
      <use transform="translate(490.932669 39.046875)scale(0.7)" xlink:href="#DejaVuSans-50"/>
     </g>
    </g>
    <g id="patch_28">
     <path d="M 582.78125 77.82 
L 610.78125 77.82 
L 610.78125 68.02 
L 582.78125 68.02 
z
" style="fill:none;stroke:#d62728;stroke-linejoin:miter;stroke-width:2;"/>
    </g>
    <g id="text_43">
     <!-- $\sigma^2 = 5\deg^2$ -->
     <g transform="translate(621.98125 77.82)scale(0.14 -0.14)">
      <use transform="translate(0 0.765625)" xlink:href="#DejaVuSans-Oblique-963"/>
      <use transform="translate(67.851615 39.046875)scale(0.7)" xlink:href="#DejaVuSans-50"/>
      <use transform="translate(134.604544 0.765625)" xlink:href="#DejaVuSans-61"/>
      <use transform="translate(237.876029 0.765625)" xlink:href="#DejaVuSans-53"/>
      <use transform="translate(301.499076 0.765625)" xlink:href="#DejaVuSans-100"/>
      <use transform="translate(364.975638 0.765625)" xlink:href="#DejaVuSans-101"/>
      <use transform="translate(426.499076 0.765625)" xlink:href="#DejaVuSans-103"/>
      <use transform="translate(490.932669 39.046875)scale(0.7)" xlink:href="#DejaVuSans-50"/>
     </g>
    </g>
   </g>
  </g>
  <g id="axes_4">
   <g id="patch_29">
    <path d="M 837.496875 166.2 
L 1058.1375 166.2 
L 1058.1375 29.8 
L 837.496875 29.8 
z
" style="fill:#ffffff;"/>
   </g>
   <g id="patch_30">
    <path clip-path="url(#p6f947320fd)" d="M 999.172953 166.2 
L 999.172953 162.62464 
L 1000.16595 162.62464 
L 1000.16595 160.241066 
L 1001.158946 160.241066 
L 1001.158946 161.432853 
L 1002.151943 161.432853 
L 1002.151943 148.323198 
L 1003.144939 148.323198 
L 1003.144939 136.40533 
L 1004.137935 136.40533 
L 1004.137935 126.871035 
L 1005.130932 126.871035 
L 1005.130932 110.18602 
L 1006.123928 110.18602 
L 1006.123928 79.199563 
L 1007.116925 79.199563 
L 1007.116925 80.39135 
L 1008.109921 80.39135 
L 1008.109921 58.939187 
L 1009.102917 58.939187 
L 1009.102917 39.870599 
L 1010.095914 39.870599 
L 1010.095914 52.980253 
L 1011.08891 52.980253 
L 1011.08891 36.295238 
L 1012.081907 36.295238 
L 1012.081907 69.665269 
L 1013.074903 69.665269 
L 1013.074903 79.199563 
L 1014.0679 79.199563 
L 1014.0679 87.542071 
L 1015.060896 87.542071 
L 1015.060896 110.18602 
L 1016.053892 110.18602 
L 1016.053892 131.638183 
L 1017.046889 131.638183 
L 1017.046889 154.282132 
L 1018.039885 154.282132 
L 1018.039885 157.857492 
L 1019.032882 157.857492 
L 1019.032882 161.432853 
L 1020.025878 161.432853 
L 1020.025878 165.008213 
L 1021.018875 165.008213 
L 1021.018875 163.816426 
L 1022.011871 163.816426 
L 1022.011871 163.816426 
L 1023.004867 163.816426 
L 1023.004867 165.008213 
L 1023.997864 165.008213 
L 1023.997864 166.2 
" style="fill:none;stroke:#1f77b4;stroke-linejoin:miter;stroke-width:2;"/>
   </g>
   <g id="patch_31">
    <path clip-path="url(#p6f947320fd)" d="M 827.390741 166.2 
L 827.390741 166.033317 
L 834.490691 166.033317 
L 834.490691 166.2 
L 841.590641 166.2 
L 841.590641 166.2 
L 848.690592 166.2 
L 848.690592 166.2 
L 855.790542 166.2 
L 855.790542 165.699951 
L 862.890492 165.699951 
L 862.890492 165.866634 
L 869.990443 165.866634 
L 869.990443 165.699951 
L 877.090393 165.699951 
L 877.090393 165.366586 
L 884.190344 165.366586 
L 884.190344 164.366489 
L 891.290294 164.366489 
L 891.290294 162.032929 
L 898.390244 162.032929 
L 898.390244 159.532686 
L 905.490195 159.532686 
L 905.490195 156.532394 
L 912.590145 156.532394 
L 912.590145 151.865274 
L 919.690095 151.865274 
L 919.690095 146.531423 
L 926.790046 146.531423 
L 926.790046 147.53152 
L 933.889996 147.53152 
L 933.889996 144.697911 
L 940.989946 144.697911 
L 940.989946 144.864594 
L 948.089897 144.864594 
L 948.089897 148.198251 
L 955.189847 148.198251 
L 955.189847 153.532103 
L 962.289798 153.532103 
L 962.289798 156.532394 
L 969.389748 156.532394 
L 969.389748 162.69966 
L 976.489698 162.69966 
L 976.489698 164.866537 
L 983.589649 164.866537 
L 983.589649 165.03322 
L 990.689599 165.03322 
L 990.689599 166.2 
L 997.789549 166.2 
L 997.789549 166.033317 
L 1004.8895 166.033317 
L 1004.8895 166.2 
" style="fill:none;stroke:#d62728;stroke-linejoin:miter;stroke-width:2;"/>
   </g>
   <g id="matplotlib.axis_7">
    <g id="xtick_15">
     <g id="line2d_63">
      <path clip-path="url(#p6f947320fd)" d="M 837.496875 166.2 
L 837.496875 29.8 
" style="fill:none;stroke:#d9d9d9;stroke-linecap:square;stroke-width:0.5;"/>
     </g>
     <g id="line2d_64">
      <g>
       <use style="stroke:#000000;stroke-width:0.8;" x="837.496875" xlink:href="#m29ad682e8e" y="166.2"/>
      </g>
     </g>
     <g id="text_44">
      <!-- −2.0 -->
      <g transform="translate(820.498906 183.837813)scale(0.14 -0.14)">
       <use xlink:href="#DejaVuSans-8722"/>
       <use x="83.789062" xlink:href="#DejaVuSans-50"/>
       <use x="147.412109" xlink:href="#DejaVuSans-46"/>
       <use x="179.199219" xlink:href="#DejaVuSans-48"/>
      </g>
     </g>
    </g>
    <g id="xtick_16">
     <g id="line2d_65">
      <path clip-path="url(#p6f947320fd)" d="M 881.625 166.2 
L 881.625 29.8 
" style="fill:none;stroke:#d9d9d9;stroke-linecap:square;stroke-width:0.5;"/>
     </g>
     <g id="line2d_66">
      <g>
       <use style="stroke:#000000;stroke-width:0.8;" x="881.625" xlink:href="#m29ad682e8e" y="166.2"/>
      </g>
     </g>
     <g id="text_45">
      <!-- −1.5 -->
      <g transform="translate(864.627031 183.837813)scale(0.14 -0.14)">
       <use xlink:href="#DejaVuSans-8722"/>
       <use x="83.789062" xlink:href="#DejaVuSans-49"/>
       <use x="147.412109" xlink:href="#DejaVuSans-46"/>
       <use x="179.199219" xlink:href="#DejaVuSans-53"/>
      </g>
     </g>
    </g>
    <g id="xtick_17">
     <g id="line2d_67">
      <path clip-path="url(#p6f947320fd)" d="M 925.753125 166.2 
L 925.753125 29.8 
" style="fill:none;stroke:#d9d9d9;stroke-linecap:square;stroke-width:0.5;"/>
     </g>
     <g id="line2d_68">
      <g>
       <use style="stroke:#000000;stroke-width:0.8;" x="925.753125" xlink:href="#m29ad682e8e" y="166.2"/>
      </g>
     </g>
     <g id="text_46">
      <!-- −1.0 -->
      <g transform="translate(908.755156 183.837813)scale(0.14 -0.14)">
       <use xlink:href="#DejaVuSans-8722"/>
       <use x="83.789062" xlink:href="#DejaVuSans-49"/>
       <use x="147.412109" xlink:href="#DejaVuSans-46"/>
       <use x="179.199219" xlink:href="#DejaVuSans-48"/>
      </g>
     </g>
    </g>
    <g id="xtick_18">
     <g id="line2d_69">
      <path clip-path="url(#p6f947320fd)" d="M 969.88125 166.2 
L 969.88125 29.8 
" style="fill:none;stroke:#d9d9d9;stroke-linecap:square;stroke-width:0.5;"/>
     </g>
     <g id="line2d_70">
      <g>
       <use style="stroke:#000000;stroke-width:0.8;" x="969.88125" xlink:href="#m29ad682e8e" y="166.2"/>
      </g>
     </g>
     <g id="text_47">
      <!-- −0.5 -->
      <g transform="translate(952.883281 183.837813)scale(0.14 -0.14)">
       <use xlink:href="#DejaVuSans-8722"/>
       <use x="83.789062" xlink:href="#DejaVuSans-48"/>
       <use x="147.412109" xlink:href="#DejaVuSans-46"/>
       <use x="179.199219" xlink:href="#DejaVuSans-53"/>
      </g>
     </g>
    </g>
    <g id="xtick_19">
     <g id="line2d_71">
      <path clip-path="url(#p6f947320fd)" d="M 1014.009375 166.2 
L 1014.009375 29.8 
" style="fill:none;stroke:#d9d9d9;stroke-linecap:square;stroke-width:0.5;"/>
     </g>
     <g id="line2d_72">
      <g>
       <use style="stroke:#000000;stroke-width:0.8;" x="1014.009375" xlink:href="#m29ad682e8e" y="166.2"/>
      </g>
     </g>
     <g id="text_48">
      <!-- 0.0 -->
      <g transform="translate(1002.877188 183.837813)scale(0.14 -0.14)">
       <use xlink:href="#DejaVuSans-48"/>
       <use x="63.623047" xlink:href="#DejaVuSans-46"/>
       <use x="95.410156" xlink:href="#DejaVuSans-48"/>
      </g>
     </g>
    </g>
    <g id="xtick_20">
     <g id="line2d_73">
      <path clip-path="url(#p6f947320fd)" d="M 1058.1375 166.2 
L 1058.1375 29.8 
" style="fill:none;stroke:#d9d9d9;stroke-linecap:square;stroke-width:0.5;"/>
     </g>
     <g id="line2d_74">
      <g>
       <use style="stroke:#000000;stroke-width:0.8;" x="1058.1375" xlink:href="#m29ad682e8e" y="166.2"/>
      </g>
     </g>
     <g id="text_49">
      <!-- 0.5 -->
      <g transform="translate(1047.005312 183.837813)scale(0.14 -0.14)">
       <use xlink:href="#DejaVuSans-48"/>
       <use x="63.623047" xlink:href="#DejaVuSans-46"/>
       <use x="95.410156" xlink:href="#DejaVuSans-53"/>
      </g>
     </g>
    </g>
    <g id="text_50">
     <!-- Error (cm) -->
     <g transform="translate(912.127031 201.387188)scale(0.14 -0.14)">
      <use xlink:href="#DejaVuSans-69"/>
      <use x="63.183594" xlink:href="#DejaVuSans-114"/>
      <use x="104.28125" xlink:href="#DejaVuSans-114"/>
      <use x="145.363281" xlink:href="#DejaVuSans-111"/>
      <use x="206.544922" xlink:href="#DejaVuSans-114"/>
      <use x="247.658203" xlink:href="#DejaVuSans-32"/>
      <use x="279.445312" xlink:href="#DejaVuSans-40"/>
      <use x="318.458984" xlink:href="#DejaVuSans-99"/>
      <use x="373.439453" xlink:href="#DejaVuSans-109"/>
      <use x="470.851562" xlink:href="#DejaVuSans-41"/>
     </g>
    </g>
   </g>
   <g id="matplotlib.axis_8">
    <g id="ytick_18">
     <g id="line2d_75">
      <path clip-path="url(#p6f947320fd)" d="M 837.496875 166.2 
L 1058.1375 166.2 
" style="fill:none;stroke:#d9d9d9;stroke-linecap:square;stroke-width:0.5;"/>
     </g>
     <g id="line2d_76">
      <g>
       <use style="stroke:#000000;stroke-width:0.8;" x="837.496875" xlink:href="#m9f5f6eb36e" y="166.2"/>
      </g>
     </g>
     <g id="text_51">
      <!-- 0 -->
      <g transform="translate(821.589375 171.518906)scale(0.14 -0.14)">
       <use xlink:href="#DejaVuSans-48"/>
      </g>
     </g>
    </g>
    <g id="ytick_19">
     <g id="line2d_77">
      <path clip-path="url(#p6f947320fd)" d="M 837.496875 139.381729 
L 1058.1375 139.381729 
" style="fill:none;stroke:#d9d9d9;stroke-linecap:square;stroke-width:0.5;"/>
     </g>
     <g id="line2d_78">
      <g>
       <use style="stroke:#000000;stroke-width:0.8;" x="837.496875" xlink:href="#m9f5f6eb36e" y="139.381729"/>
      </g>
     </g>
     <g id="text_52">
      <!-- 2 -->
      <g transform="translate(821.589375 144.700635)scale(0.14 -0.14)">
       <use xlink:href="#DejaVuSans-50"/>
      </g>
     </g>
    </g>
    <g id="ytick_20">
     <g id="line2d_79">
      <path clip-path="url(#p6f947320fd)" d="M 837.496875 112.563457 
L 1058.1375 112.563457 
" style="fill:none;stroke:#d9d9d9;stroke-linecap:square;stroke-width:0.5;"/>
     </g>
     <g id="line2d_80">
      <g>
       <use style="stroke:#000000;stroke-width:0.8;" x="837.496875" xlink:href="#m9f5f6eb36e" y="112.563457"/>
      </g>
     </g>
     <g id="text_53">
      <!-- 4 -->
      <defs>
       <path d="M 37.796875 64.3125 
L 12.890625 25.390625 
L 37.796875 25.390625 
z
M 35.203125 72.90625 
L 47.609375 72.90625 
L 47.609375 25.390625 
L 58.015625 25.390625 
L 58.015625 17.1875 
L 47.609375 17.1875 
L 47.609375 0 
L 37.796875 0 
L 37.796875 17.1875 
L 4.890625 17.1875 
L 4.890625 26.703125 
z
" id="DejaVuSans-52"/>
      </defs>
      <g transform="translate(821.589375 117.882364)scale(0.14 -0.14)">
       <use xlink:href="#DejaVuSans-52"/>
      </g>
     </g>
    </g>
    <g id="ytick_21">
     <g id="line2d_81">
      <path clip-path="url(#p6f947320fd)" d="M 837.496875 85.745186 
L 1058.1375 85.745186 
" style="fill:none;stroke:#d9d9d9;stroke-linecap:square;stroke-width:0.5;"/>
     </g>
     <g id="line2d_82">
      <g>
       <use style="stroke:#000000;stroke-width:0.8;" x="837.496875" xlink:href="#m9f5f6eb36e" y="85.745186"/>
      </g>
     </g>
     <g id="text_54">
      <!-- 6 -->
      <defs>
       <path d="M 33.015625 40.375 
Q 26.375 40.375 22.484375 35.828125 
Q 18.609375 31.296875 18.609375 23.390625 
Q 18.609375 15.53125 22.484375 10.953125 
Q 26.375 6.390625 33.015625 6.390625 
Q 39.65625 6.390625 43.53125 10.953125 
Q 47.40625 15.53125 47.40625 23.390625 
Q 47.40625 31.296875 43.53125 35.828125 
Q 39.65625 40.375 33.015625 40.375 
z
M 52.59375 71.296875 
L 52.59375 62.3125 
Q 48.875 64.0625 45.09375 64.984375 
Q 41.3125 65.921875 37.59375 65.921875 
Q 27.828125 65.921875 22.671875 59.328125 
Q 17.53125 52.734375 16.796875 39.40625 
Q 19.671875 43.65625 24.015625 45.921875 
Q 28.375 48.1875 33.59375 48.1875 
Q 44.578125 48.1875 50.953125 41.515625 
Q 57.328125 34.859375 57.328125 23.390625 
Q 57.328125 12.15625 50.6875 5.359375 
Q 44.046875 -1.421875 33.015625 -1.421875 
Q 20.359375 -1.421875 13.671875 8.265625 
Q 6.984375 17.96875 6.984375 36.375 
Q 6.984375 53.65625 15.1875 63.9375 
Q 23.390625 74.21875 37.203125 74.21875 
Q 40.921875 74.21875 44.703125 73.484375 
Q 48.484375 72.75 52.59375 71.296875 
z
" id="DejaVuSans-54"/>
      </defs>
      <g transform="translate(821.589375 91.064092)scale(0.14 -0.14)">
       <use xlink:href="#DejaVuSans-54"/>
      </g>
     </g>
    </g>
    <g id="ytick_22">
     <g id="line2d_83">
      <path clip-path="url(#p6f947320fd)" d="M 837.496875 58.926915 
L 1058.1375 58.926915 
" style="fill:none;stroke:#d9d9d9;stroke-linecap:square;stroke-width:0.5;"/>
     </g>
     <g id="line2d_84">
      <g>
       <use style="stroke:#000000;stroke-width:0.8;" x="837.496875" xlink:href="#m9f5f6eb36e" y="58.926915"/>
      </g>
     </g>
     <g id="text_55">
      <!-- 8 -->
      <defs>
       <path d="M 31.78125 34.625 
Q 24.75 34.625 20.71875 30.859375 
Q 16.703125 27.09375 16.703125 20.515625 
Q 16.703125 13.921875 20.71875 10.15625 
Q 24.75 6.390625 31.78125 6.390625 
Q 38.8125 6.390625 42.859375 10.171875 
Q 46.921875 13.96875 46.921875 20.515625 
Q 46.921875 27.09375 42.890625 30.859375 
Q 38.875 34.625 31.78125 34.625 
z
M 21.921875 38.8125 
Q 15.578125 40.375 12.03125 44.71875 
Q 8.5 49.078125 8.5 55.328125 
Q 8.5 64.0625 14.71875 69.140625 
Q 20.953125 74.21875 31.78125 74.21875 
Q 42.671875 74.21875 48.875 69.140625 
Q 55.078125 64.0625 55.078125 55.328125 
Q 55.078125 49.078125 51.53125 44.71875 
Q 48 40.375 41.703125 38.8125 
Q 48.828125 37.15625 52.796875 32.3125 
Q 56.78125 27.484375 56.78125 20.515625 
Q 56.78125 9.90625 50.3125 4.234375 
Q 43.84375 -1.421875 31.78125 -1.421875 
Q 19.734375 -1.421875 13.25 4.234375 
Q 6.78125 9.90625 6.78125 20.515625 
Q 6.78125 27.484375 10.78125 32.3125 
Q 14.796875 37.15625 21.921875 38.8125 
z
M 18.3125 54.390625 
Q 18.3125 48.734375 21.84375 45.5625 
Q 25.390625 42.390625 31.78125 42.390625 
Q 38.140625 42.390625 41.71875 45.5625 
Q 45.3125 48.734375 45.3125 54.390625 
Q 45.3125 60.0625 41.71875 63.234375 
Q 38.140625 66.40625 31.78125 66.40625 
Q 25.390625 66.40625 21.84375 63.234375 
Q 18.3125 60.0625 18.3125 54.390625 
z
" id="DejaVuSans-56"/>
      </defs>
      <g transform="translate(821.589375 64.245821)scale(0.14 -0.14)">
       <use xlink:href="#DejaVuSans-56"/>
      </g>
     </g>
    </g>
    <g id="ytick_23">
     <g id="line2d_85">
      <path clip-path="url(#p6f947320fd)" d="M 837.496875 32.108643 
L 1058.1375 32.108643 
" style="fill:none;stroke:#d9d9d9;stroke-linecap:square;stroke-width:0.5;"/>
     </g>
     <g id="line2d_86">
      <g>
       <use style="stroke:#000000;stroke-width:0.8;" x="837.496875" xlink:href="#m9f5f6eb36e" y="32.108643"/>
      </g>
     </g>
     <g id="text_56">
      <!-- 10 -->
      <g transform="translate(812.681875 37.427549)scale(0.14 -0.14)">
       <use xlink:href="#DejaVuSans-49"/>
       <use x="63.623047" xlink:href="#DejaVuSans-48"/>
      </g>
     </g>
    </g>
   </g>
   <g id="patch_32">
    <path d="M 837.496875 166.2 
L 837.496875 29.8 
" style="fill:none;stroke:#000000;stroke-linecap:square;stroke-linejoin:miter;stroke-width:0.8;"/>
   </g>
   <g id="patch_33">
    <path d="M 1058.1375 166.2 
L 1058.1375 29.8 
" style="fill:none;stroke:#000000;stroke-linecap:square;stroke-linejoin:miter;stroke-width:0.8;"/>
   </g>
   <g id="patch_34">
    <path d="M 837.496875 166.2 
L 1058.1375 166.2 
" style="fill:none;stroke:#000000;stroke-linecap:square;stroke-linejoin:miter;stroke-width:0.8;"/>
   </g>
   <g id="patch_35">
    <path d="M 837.496875 29.8 
L 1058.1375 29.8 
" style="fill:none;stroke:#000000;stroke-linecap:square;stroke-linejoin:miter;stroke-width:0.8;"/>
   </g>
   <g id="text_57">
    <!-- $l$ -->
    <defs>
     <path d="M 18.3125 75.984375 
L 27.296875 75.984375 
L 12.5 0 
L 3.515625 0 
z
" id="DejaVuSans-Oblique-108"/>
    </defs>
    <g transform="translate(945.577188 23.8)scale(0.16 -0.16)">
     <use transform="translate(0 0.015625)" xlink:href="#DejaVuSans-Oblique-108"/>
    </g>
   </g>
   <g id="legend_4">
    <g id="patch_36">
     <path d="M 850.096875 55.14 
L 878.096875 55.14 
L 878.096875 45.34 
L 850.096875 45.34 
z
" style="fill:none;stroke:#1f77b4;stroke-linejoin:miter;stroke-width:2;"/>
    </g>
    <g id="text_58">
     <!-- $\sigma^2 = 1\deg^2$ -->
     <g transform="translate(889.296875 55.14)scale(0.14 -0.14)">
      <use transform="translate(0 0.765625)" xlink:href="#DejaVuSans-Oblique-963"/>
      <use transform="translate(67.851615 39.046875)scale(0.7)" xlink:href="#DejaVuSans-50"/>
      <use transform="translate(134.604544 0.765625)" xlink:href="#DejaVuSans-61"/>
      <use transform="translate(237.876029 0.765625)" xlink:href="#DejaVuSans-49"/>
      <use transform="translate(301.499076 0.765625)" xlink:href="#DejaVuSans-100"/>
      <use transform="translate(364.975638 0.765625)" xlink:href="#DejaVuSans-101"/>
      <use transform="translate(426.499076 0.765625)" xlink:href="#DejaVuSans-103"/>
      <use transform="translate(490.932669 39.046875)scale(0.7)" xlink:href="#DejaVuSans-50"/>
     </g>
    </g>
    <g id="patch_37">
     <path d="M 850.096875 77.82 
L 878.096875 77.82 
L 878.096875 68.02 
L 850.096875 68.02 
z
" style="fill:none;stroke:#d62728;stroke-linejoin:miter;stroke-width:2;"/>
    </g>
    <g id="text_59">
     <!-- $\sigma^2 = 5\deg^2$ -->
     <g transform="translate(889.296875 77.82)scale(0.14 -0.14)">
      <use transform="translate(0 0.765625)" xlink:href="#DejaVuSans-Oblique-963"/>
      <use transform="translate(67.851615 39.046875)scale(0.7)" xlink:href="#DejaVuSans-50"/>
      <use transform="translate(134.604544 0.765625)" xlink:href="#DejaVuSans-61"/>
      <use transform="translate(237.876029 0.765625)" xlink:href="#DejaVuSans-53"/>
      <use transform="translate(301.499076 0.765625)" xlink:href="#DejaVuSans-100"/>
      <use transform="translate(364.975638 0.765625)" xlink:href="#DejaVuSans-101"/>
      <use transform="translate(426.499076 0.765625)" xlink:href="#DejaVuSans-103"/>
      <use transform="translate(490.932669 39.046875)scale(0.7)" xlink:href="#DejaVuSans-50"/>
     </g>
    </g>
   </g>
  </g>
 </g>
 <defs>
  <clipPath id="p8fd538b15b">
   <rect height="136.4" width="220.640625" x="35.55" y="29.8"/>
  </clipPath>
  <clipPath id="p5e4cc73266">
   <rect height="136.4" width="220.640625" x="302.865625" y="29.8"/>
  </clipPath>
  <clipPath id="p100350bdce">
   <rect height="136.4" width="220.640625" x="570.18125" y="29.8"/>
  </clipPath>
  <clipPath id="p6f947320fd">
   <rect height="136.4" width="220.640625" x="837.496875" y="29.8"/>
  </clipPath>
 </defs>
</svg>
